<svg xmlns="http://www.w3.org/2000/svg" xmlns:xlink="http://www.w3.org/1999/xlink" width="200" zoomAndPan="magnify" viewBox="0 0 150 149.999998" height="200" preserveAspectRatio="xMidYMid meet" version="1.0"><path fill="#3d1700" d="M 31.292969 75 L 62.542969 75 C 63.15625 75 63.765625 74.941406 64.371094 74.820312 C 64.972656 74.699219 65.5625 74.523438 66.128906 74.285156 C 66.699219 74.050781 67.238281 73.761719 67.75 73.421875 C 68.261719 73.078125 68.734375 72.6875 69.171875 72.253906 C 69.605469 71.820312 69.996094 71.34375 70.335938 70.832031 C 70.679688 70.320312 70.96875 69.78125 71.203125 69.210938 C 71.4375 68.644531 71.617188 68.058594 71.738281 67.453125 C 71.855469 66.851562 71.917969 66.242188 71.917969 65.625 L 71.917969 34.375 C 71.917969 33.757812 71.855469 33.148438 71.738281 32.546875 C 71.617188 31.941406 71.4375 31.355469 71.203125 30.789062 C 70.96875 30.21875 70.679688 29.679688 70.335938 29.167969 C 69.996094 28.65625 69.605469 28.179688 69.171875 27.746094 C 68.734375 27.3125 68.261719 26.921875 67.75 26.578125 C 67.238281 26.238281 66.699219 25.949219 66.128906 25.714844 C 65.5625 25.476562 64.972656 25.300781 64.371094 25.179688 C 63.765625 25.058594 63.15625 25 62.542969 25 L 31.292969 25 C 30.675781 25 30.066406 25.058594 29.460938 25.179688 C 28.859375 25.300781 28.273438 25.476562 27.703125 25.714844 C 27.136719 25.949219 26.59375 26.238281 26.082031 26.578125 C 25.570312 26.921875 25.097656 27.3125 24.664062 27.746094 C 24.226562 28.179688 23.839844 28.65625 23.496094 29.167969 C 23.15625 29.679688 22.867188 30.21875 22.628906 30.789062 C 22.394531 31.355469 22.21875 31.941406 22.097656 32.546875 C 21.976562 33.148438 21.917969 33.757812 21.917969 34.375 L 21.917969 65.625 C 21.917969 66.242188 21.976562 66.851562 22.097656 67.453125 C 22.21875 68.058594 22.394531 68.644531 22.628906 69.210938 C 22.867188 69.78125 23.15625 70.320312 23.496094 70.832031 C 23.839844 71.34375 24.226562 71.820312 24.664062 72.253906 C 25.097656 72.6875 25.570312 73.078125 26.082031 73.421875 C 26.59375 73.761719 27.136719 74.050781 27.703125 74.285156 C 28.273438 74.523438 28.859375 74.699219 29.460938 74.820312 C 30.066406 74.941406 30.675781 75 31.292969 75 Z M 28.167969 34.375 C 28.167969 33.960938 28.246094 33.5625 28.40625 33.179688 C 28.5625 32.796875 28.789062 32.457031 29.082031 32.164062 C 29.375 31.871094 29.714844 31.644531 30.097656 31.488281 C 30.480469 31.328125 30.878906 31.25 31.292969 31.25 L 62.542969 31.25 C 62.957031 31.25 63.355469 31.328125 63.738281 31.488281 C 64.121094 31.644531 64.457031 31.871094 64.75 32.164062 C 65.042969 32.457031 65.269531 32.796875 65.429688 33.179688 C 65.585938 33.5625 65.667969 33.960938 65.667969 34.375 L 65.667969 65.625 C 65.667969 66.039062 65.585938 66.4375 65.429688 66.820312 C 65.269531 67.203125 65.042969 67.542969 64.75 67.835938 C 64.457031 68.128906 64.121094 68.355469 63.738281 68.511719 C 63.355469 68.671875 62.957031 68.75 62.542969 68.75 L 31.292969 68.75 C 30.878906 68.75 30.480469 68.671875 30.097656 68.511719 C 29.714844 68.355469 29.375 68.128906 29.082031 67.835938 C 28.789062 67.542969 28.5625 67.203125 28.40625 66.820312 C 28.246094 66.4375 28.167969 66.039062 28.167969 65.625 Z M 118.792969 25 L 87.542969 25 C 86.925781 25 86.316406 25.058594 85.710938 25.179688 C 85.109375 25.300781 84.523438 25.476562 83.953125 25.714844 C 83.386719 25.949219 82.84375 26.238281 82.332031 26.578125 C 81.820312 26.921875 81.347656 27.3125 80.914062 27.746094 C 80.476562 28.179688 80.089844 28.65625 79.746094 29.167969 C 79.40625 29.679688 79.117188 30.21875 78.878906 30.789062 C 78.644531 31.355469 78.46875 31.941406 78.347656 32.546875 C 78.226562 33.148438 78.167969 33.757812 78.167969 34.375 L 78.167969 65.625 C 78.167969 66.242188 78.226562 66.851562 78.347656 67.453125 C 78.46875 68.058594 78.644531 68.644531 78.878906 69.210938 C 79.117188 69.78125 79.40625 70.320312 79.746094 70.832031 C 80.089844 71.34375 80.476562 71.820312 80.914062 72.253906 C 81.347656 72.6875 81.820312 73.078125 82.332031 73.421875 C 82.84375 73.761719 83.386719 74.050781 83.953125 74.285156 C 84.523438 74.523438 85.109375 74.699219 85.710938 74.820312 C 86.316406 74.941406 86.925781 75 87.542969 75 L 118.792969 75 C 119.40625 75 120.015625 74.941406 120.621094 74.820312 C 121.222656 74.699219 121.8125 74.523438 122.378906 74.285156 C 122.949219 74.050781 123.488281 73.761719 124 73.421875 C 124.511719 73.078125 124.984375 72.6875 125.421875 72.253906 C 125.855469 71.820312 126.246094 71.34375 126.585938 70.832031 C 126.929688 70.320312 127.21875 69.78125 127.453125 69.210938 C 127.6875 68.644531 127.867188 68.058594 127.988281 67.453125 C 128.105469 66.851562 128.167969 66.242188 128.167969 65.625 L 128.167969 34.375 C 128.167969 33.757812 128.105469 33.148438 127.988281 32.546875 C 127.867188 31.941406 127.6875 31.355469 127.453125 30.789062 C 127.21875 30.21875 126.929688 29.679688 126.585938 29.167969 C 126.246094 28.65625 125.855469 28.179688 125.421875 27.746094 C 124.984375 27.3125 124.511719 26.921875 124 26.578125 C 123.488281 26.238281 122.949219 25.949219 122.378906 25.714844 C 121.8125 25.476562 121.222656 25.300781 120.621094 25.179688 C 120.015625 25.058594 119.40625 25 118.792969 25 Z M 121.917969 65.625 C 121.917969 66.039062 121.835938 66.4375 121.679688 66.820312 C 121.519531 67.203125 121.292969 67.542969 121 67.835938 C 120.707031 68.128906 120.371094 68.355469 119.988281 68.511719 C 119.605469 68.671875 119.207031 68.75 118.792969 68.75 L 87.542969 68.75 C 87.128906 68.75 86.730469 68.671875 86.347656 68.511719 C 85.964844 68.355469 85.625 68.128906 85.332031 67.835938 C 85.039062 67.542969 84.8125 67.203125 84.65625 66.820312 C 84.496094 66.4375 84.417969 66.039062 84.417969 65.625 L 84.417969 34.375 C 84.417969 33.960938 84.496094 33.5625 84.65625 33.179688 C 84.8125 32.796875 85.039062 32.457031 85.332031 32.164062 C 85.625 31.871094 85.964844 31.644531 86.347656 31.488281 C 86.730469 31.328125 87.128906 31.25 87.542969 31.25 L 118.792969 31.25 C 119.207031 31.25 119.605469 31.328125 119.988281 31.488281 C 120.371094 31.644531 120.707031 31.871094 121 32.164062 C 121.292969 32.457031 121.519531 32.796875 121.679688 33.179688 C 121.835938 33.5625 121.917969 33.960938 121.917969 34.375 Z M 31.292969 131.25 L 62.542969 131.25 C 63.15625 131.25 63.765625 131.191406 64.371094 131.070312 C 64.972656 130.949219 65.5625 130.773438 66.128906 130.535156 C 66.699219 130.300781 67.238281 130.011719 67.75 129.671875 C 68.261719 129.328125 68.734375 128.9375 69.171875 128.503906 C 69.605469 128.070312 69.996094 127.59375 70.335938 127.082031 C 70.679688 126.570312 70.96875 126.03125 71.203125 125.460938 C 71.4375 124.894531 71.617188 124.308594 71.738281 123.703125 C 71.855469 123.101562 71.917969 122.492188 71.917969 121.875 L 71.917969 90.625 C 71.917969 90.007812 71.855469 89.398438 71.738281 88.796875 C 71.617188 88.191406 71.4375 87.605469 71.203125 87.039062 C 70.96875 86.46875 70.679688 85.929688 70.335938 85.417969 C 69.996094 84.90625 69.605469 84.429688 69.171875 83.996094 C 68.734375 83.5625 68.261719 83.171875 67.75 82.828125 C 67.238281 82.488281 66.699219 82.199219 66.128906 81.964844 C 65.5625 81.726562 64.972656 81.550781 64.371094 81.429688 C 63.765625 81.308594 63.15625 81.25 62.542969 81.25 L 31.292969 81.25 C 30.675781 81.25 30.066406 81.308594 29.460938 81.429688 C 28.859375 81.550781 28.273438 81.726562 27.703125 81.964844 C 27.136719 82.199219 26.59375 82.488281 26.082031 82.828125 C 25.570312 83.171875 25.097656 83.5625 24.664062 83.996094 C 24.226562 84.429688 23.839844 84.90625 23.496094 85.417969 C 23.15625 85.929688 22.867188 86.46875 22.628906 87.039062 C 22.394531 87.605469 22.21875 88.191406 22.097656 88.796875 C 21.976562 89.398438 21.917969 90.007812 21.917969 90.625 L 21.917969 121.875 C 21.917969 122.492188 21.976562 123.101562 22.097656 123.703125 C 22.21875 124.308594 22.394531 124.894531 22.628906 125.460938 C 22.867188 126.03125 23.15625 126.570312 23.496094 127.082031 C 23.839844 127.59375 24.226562 128.070312 24.664062 128.503906 C 25.097656 128.9375 25.570312 129.328125 26.082031 129.671875 C 26.59375 130.011719 27.136719 130.300781 27.703125 130.535156 C 28.273438 130.773438 28.859375 130.949219 29.460938 131.070312 C 30.066406 131.191406 30.675781 131.25 31.292969 131.25 Z M 28.167969 90.625 C 28.167969 90.210938 28.246094 89.8125 28.40625 89.429688 C 28.5625 89.046875 28.789062 88.707031 29.082031 88.414062 C 29.375 88.121094 29.714844 87.894531 30.097656 87.738281 C 30.480469 87.578125 30.878906 87.5 31.292969 87.5 L 62.542969 87.5 C 62.957031 87.5 63.355469 87.578125 63.738281 87.738281 C 64.121094 87.894531 64.457031 88.121094 64.75 88.414062 C 65.042969 88.707031 65.269531 89.046875 65.429688 89.429688 C 65.585938 89.8125 65.667969 90.210938 65.667969 90.625 L 65.667969 121.875 C 65.667969 122.289062 65.585938 122.6875 65.429688 123.070312 C 65.269531 123.453125 65.042969 123.792969 64.75 124.085938 C 64.457031 124.378906 64.121094 124.601562 63.738281 124.761719 C 63.355469 124.921875 62.957031 125 62.542969 125 L 31.292969 125 C 30.878906 125 30.480469 124.921875 30.097656 124.761719 C 29.714844 124.601562 29.375 124.378906 29.082031 124.085938 C 28.789062 123.792969 28.5625 123.453125 28.40625 123.070312 C 28.246094 122.6875 28.167969 122.289062 28.167969 121.875 Z M 118.792969 81.25 L 87.542969 81.25 C 86.925781 81.25 86.316406 81.308594 85.710938 81.429688 C 85.109375 81.550781 84.523438 81.726562 83.953125 81.964844 C 83.386719 82.199219 82.84375 82.488281 82.332031 82.828125 C 81.820312 83.171875 81.347656 83.5625 80.914062 83.996094 C 80.476562 84.429688 80.089844 84.90625 79.746094 85.417969 C 79.40625 85.929688 79.117188 86.46875 78.878906 87.039062 C 78.644531 87.605469 78.46875 88.191406 78.347656 88.796875 C 78.226562 89.398438 78.167969 90.007812 78.167969 90.625 L 78.167969 121.875 C 78.167969 122.492188 78.226562 123.101562 78.347656 123.703125 C 78.46875 124.308594 78.644531 124.894531 78.878906 125.460938 C 79.117188 126.03125 79.40625 126.570312 79.746094 127.082031 C 80.089844 127.59375 80.476562 128.070312 80.914062 128.503906 C 81.347656 128.9375 81.820312 129.328125 82.332031 129.671875 C 82.84375 130.011719 83.386719 130.300781 83.953125 130.535156 C 84.523438 130.773438 85.109375 130.949219 85.710938 131.070312 C 86.316406 131.191406 86.925781 131.25 87.542969 131.25 L 118.792969 131.25 C 119.40625 131.25 120.015625 131.191406 120.621094 131.070312 C 121.222656 130.949219 121.8125 130.773438 122.378906 130.535156 C 122.949219 130.300781 123.488281 130.011719 124 129.671875 C 124.511719 129.328125 124.984375 128.9375 125.421875 128.503906 C 125.855469 128.070312 126.246094 127.59375 126.585938 127.082031 C 126.929688 126.570312 127.21875 126.03125 127.453125 125.460938 C 127.6875 124.894531 127.867188 124.308594 127.988281 123.703125 C 128.105469 123.101562 128.167969 122.492188 128.167969 121.875 L 128.167969 90.625 C 128.167969 90.007812 128.105469 89.398438 127.988281 88.796875 C 127.867188 88.191406 127.6875 87.605469 127.453125 87.039062 C 127.21875 86.46875 126.929688 85.929688 126.585938 85.417969 C 126.246094 84.90625 125.855469 84.429688 125.421875 83.996094 C 124.984375 83.5625 124.511719 83.171875 124 82.828125 C 123.488281 82.488281 122.949219 82.199219 122.378906 81.964844 C 121.8125 81.726562 121.222656 81.550781 120.621094 81.429688 C 120.015625 81.308594 119.40625 81.25 118.792969 81.25 Z M 121.917969 121.875 C 121.917969 122.289062 121.835938 122.6875 121.679688 123.070312 C 121.519531 123.453125 121.292969 123.792969 121 124.085938 C 120.707031 124.378906 120.371094 124.601562 119.988281 124.761719 C 119.605469 124.921875 119.207031 125 118.792969 125 L 87.542969 125 C 87.128906 125 86.730469 124.921875 86.347656 124.761719 C 85.964844 124.601562 85.625 124.378906 85.332031 124.085938 C 85.039062 123.792969 84.8125 123.453125 84.65625 123.070312 C 84.496094 122.6875 84.417969 122.289062 84.417969 121.875 L 84.417969 90.625 C 84.417969 90.210938 84.496094 89.8125 84.65625 89.429688 C 84.8125 89.046875 85.039062 88.707031 85.332031 88.414062 C 85.625 88.121094 85.964844 87.894531 86.347656 87.738281 C 86.730469 87.578125 87.128906 87.5 87.542969 87.5 L 118.792969 87.5 C 119.207031 87.5 119.605469 87.578125 119.988281 87.738281 C 120.371094 87.894531 120.707031 88.121094 121 88.414062 C 121.292969 88.707031 121.519531 89.046875 121.679688 89.429688 C 121.835938 89.8125 121.917969 90.210938 121.917969 90.625 Z M 121.917969 121.875 " fill-opacity="1" fill-rule="nonzero"/></svg>