<svg xmlns="http://www.w3.org/2000/svg" xmlns:xlink="http://www.w3.org/1999/xlink" width="200" zoomAndPan="magnify" viewBox="0 0 150 149.999998" height="200" preserveAspectRatio="xMidYMid meet" version="1.0"><path fill="#3d1700" d="M 69.488281 121.914062 C 71.027344 116.507812 70.652344 110.039062 69.632812 103.636719 C 69.296875 101.523438 68.894531 99.417969 68.460938 97.359375 C 68.296875 96.519531 67.414062 95.824219 66.484375 95.984375 L 32.347656 100.980469 C 32.425781 100.417969 32.511719 99.851562 32.609375 99.28125 C 34.667969 87.199219 31.515625 81.03125 28.183594 74.496094 C 27.347656 72.859375 26.503906 71.207031 25.714844 69.421875 L 30.621094 68.242188 C 31.566406 68.011719 32.148438 67.0625 31.917969 66.121094 C 31.691406 65.175781 30.742188 64.597656 29.800781 64.824219 L 24.398438 66.125 C 23.71875 64.214844 23.132812 62.117188 22.6875 59.738281 L 27.742188 59.226562 C 28.707031 59.128906 29.410156 58.265625 29.3125 57.300781 C 29.214844 56.335938 28.351562 55.632812 27.386719 55.730469 L 22.175781 56.253906 C 21.984375 54.503906 21.863281 52.617188 21.835938 50.550781 C 21.832031 50.101562 21.828125 49.660156 21.832031 49.21875 L 26.871094 49.882812 C 26.949219 49.894531 27.027344 49.898438 27.105469 49.898438 C 27.972656 49.898438 28.726562 49.253906 28.84375 48.371094 C 28.972656 47.40625 28.292969 46.523438 27.332031 46.398438 L 21.921875 45.6875 C 22.042969 43.265625 22.285156 41 22.648438 38.886719 L 27.472656 40.519531 C 27.660156 40.582031 27.851562 40.613281 28.039062 40.613281 C 28.769531 40.613281 29.453125 40.152344 29.703125 39.417969 C 30.015625 38.5 29.519531 37.503906 28.601562 37.191406 L 23.382812 35.421875 C 24.027344 32.925781 24.871094 30.683594 25.910156 28.714844 L 29.519531 32.179688 C 29.859375 32.507812 30.296875 32.671875 30.734375 32.671875 C 31.195312 32.671875 31.65625 32.492188 32.003906 32.132812 C 32.675781 31.433594 32.652344 30.320312 31.953125 29.648438 L 27.824219 25.675781 C 29.273438 23.695312 31.496094 21.816406 33.292969 20.832031 L 35.222656 25.601562 C 35.5 26.285156 36.160156 26.699219 36.855469 26.699219 C 37.074219 26.699219 37.296875 26.65625 37.511719 26.570312 C 38.414062 26.207031 38.847656 25.179688 38.480469 24.28125 L 36.523438 19.445312 C 37.785156 19.050781 38.984375 18.832031 40.042969 18.722656 C 40.941406 18.628906 41.8125 18.574219 42.65625 18.550781 L 42.65625 23.816406 C 42.65625 24.789062 43.441406 25.574219 44.410156 25.574219 C 45.382812 25.574219 46.167969 24.789062 46.167969 23.816406 L 46.167969 18.660156 C 48.695312 18.910156 50.917969 19.535156 52.867188 20.542969 L 50.484375 25.527344 C 50.066406 26.402344 50.4375 27.449219 51.3125 27.871094 C 51.554688 27.988281 51.8125 28.042969 52.070312 28.042969 C 52.722656 28.042969 53.351562 27.671875 53.65625 27.042969 L 55.8125 22.53125 C 57.320312 23.832031 58.652344 25.476562 59.808594 27.480469 L 55.484375 32.132812 C 54.824219 32.84375 54.867188 33.953125 55.578125 34.613281 C 55.914062 34.929688 56.34375 35.085938 56.773438 35.085938 C 57.242188 35.085938 57.714844 34.898438 58.058594 34.523438 L 61.460938 30.863281 C 62.25 32.777344 62.933594 34.929688 63.511719 37.339844 L 58.214844 40.359375 C 57.375 40.839844 57.078125 41.914062 57.558594 42.757812 C 57.886719 43.324219 58.476562 43.644531 59.089844 43.644531 C 59.382812 43.644531 59.683594 43.570312 59.957031 43.414062 L 64.269531 40.953125 C 64.671875 43.15625 65.003906 45.535156 65.265625 48.105469 L 59.695312 50.164062 C 58.785156 50.503906 58.320312 51.511719 58.65625 52.421875 C 58.917969 53.132812 59.589844 53.570312 60.304688 53.570312 C 60.507812 53.570312 60.714844 53.535156 60.914062 53.460938 L 65.585938 51.734375 C 65.75 53.796875 65.917969 57.171875 65.917969 59.5 L 60.339844 60.410156 C 59.378906 60.566406 58.730469 61.472656 58.886719 62.429688 C 59.027344 63.289062 59.773438 63.902344 60.621094 63.902344 C 60.714844 63.902344 60.808594 63.894531 60.90625 63.878906 L 65.867188 63.070312 C 65.695312 67.90625 65.160156 71.738281 64.664062 75.265625 C 64.019531 79.859375 63.414062 84.195312 63.78125 89.613281 C 63.847656 90.582031 64.691406 91.316406 65.65625 91.25 C 66.625 91.183594 67.355469 90.34375 67.289062 89.375 C 66.945312 84.320312 67.5 80.351562 68.144531 75.753906 C 68.933594 70.128906 69.832031 63.75 69.25 53.867188 C 67.96875 32.402344 62.929688 12.65625 39.683594 15.226562 C 22.894531 17.160156 18 34.359375 18.320312 50.597656 C 18.488281 63.238281 21.972656 70.070312 25.050781 76.09375 C 28.246094 82.355469 31.007812 87.761719 29.144531 98.691406 C 28.957031 99.785156 28.703125 101.523438 28.546875 103.027344 C 27.363281 114.34375 29.488281 123.464844 34.675781 129.050781 C 39.101562 134.039062 46.597656 135.769531 53.582031 134.691406 C 61.886719 133.5 67.363281 129.410156 69.488281 121.914062 Z M 58.390625 100.722656 C 59.460938 105.960938 61.390625 116.957031 58.289062 121.371094 C 58.289062 121.375 58.289062 121.375 58.289062 121.375 C 57.898438 121.929688 56.722656 123.613281 52.132812 124.246094 C 48.851562 124.859375 44.023438 124.214844 42.140625 121.589844 C 39.253906 118.167969 38.164062 111.636719 39.097656 103.546875 Z M 35.507812 104.070312 C 34.640625 112.808594 36.015625 119.78125 39.453125 123.855469 C 42.242188 127.417969 47.605469 128.523438 52.621094 127.726562 C 67.429688 125.882812 63.457031 110.421875 61.871094 100.210938 L 65.351562 99.703125 C 67.261719 108.871094 70.820312 129.59375 53.101562 131.210938 C 47.496094 132.085938 40.492188 131.042969 36.53125 125.832031 C 32.800781 121.164062 31.195312 113.664062 31.9375 104.59375 Z M 35.507812 104.070312 " fill-opacity="1" fill-rule="nonzero"/><path fill="#3d1700" d="M 32.46875 39.816406 C 32.585938 40.699219 33.339844 41.34375 34.207031 41.34375 C 34.285156 41.34375 34.367188 41.335938 34.445312 41.324219 L 51.019531 39.097656 C 51.980469 38.96875 52.65625 38.085938 52.527344 37.125 C 52.398438 36.160156 51.511719 35.488281 50.554688 35.617188 L 33.976562 37.84375 C 33.015625 37.972656 32.339844 38.855469 32.46875 39.816406 Z M 32.46875 39.816406 " fill-opacity="1" fill-rule="nonzero"/><path fill="#3d1700" d="M 38.578125 33.765625 C 38.65625 33.765625 38.738281 33.761719 38.816406 33.75 L 44.242188 33.019531 C 45.207031 32.890625 45.882812 32.007812 45.753906 31.046875 C 45.621094 30.082031 44.734375 29.410156 43.777344 29.539062 L 38.347656 30.265625 C 37.386719 30.394531 36.710938 31.28125 36.839844 32.242188 C 36.957031 33.125 37.714844 33.765625 38.578125 33.765625 Z M 38.578125 33.765625 " fill-opacity="1" fill-rule="nonzero"/><path fill="#3d1700" d="M 34.847656 49.921875 C 34.925781 49.921875 35.003906 49.917969 35.082031 49.90625 L 51.660156 47.679688 C 52.621094 47.550781 53.296875 46.664062 53.167969 45.703125 C 53.039062 44.742188 52.148438 44.066406 51.191406 44.195312 L 34.613281 46.421875 C 33.652344 46.550781 32.976562 47.433594 33.105469 48.398438 C 33.226562 49.28125 33.980469 49.921875 34.847656 49.921875 Z M 34.847656 49.921875 " fill-opacity="1" fill-rule="nonzero"/><path fill="#3d1700" d="M 35.71875 58.148438 C 35.796875 58.148438 35.875 58.144531 35.957031 58.132812 L 52.53125 55.90625 C 53.492188 55.777344 54.167969 54.894531 54.039062 53.929688 C 53.910156 52.96875 53.023438 52.292969 52.0625 52.421875 L 35.488281 54.648438 C 34.527344 54.777344 33.851562 55.664062 33.980469 56.625 C 34.097656 57.507812 34.851562 58.148438 35.71875 58.148438 Z M 35.71875 58.148438 " fill-opacity="1" fill-rule="nonzero"/><path fill="#3d1700" d="M 131.667969 47.507812 C 131.320312 27.464844 122.671875 14.386719 105.757812 15.023438 C 84.738281 15.222656 81.855469 37.652344 80.757812 53.867188 C 80.175781 63.75 81.070312 70.128906 81.859375 75.753906 C 82.808594 82.511719 83.558594 87.847656 81.609375 97.058594 C 79.628906 106.75 77.441406 119.496094 83.109375 127.464844 C 85.90625 131.425781 90.382812 133.855469 96.425781 134.691406 C 102.914062 135.640625 110.425781 134.464844 115.332031 129.050781 C 121.71875 122.390625 122.886719 110.082031 120.863281 98.691406 C 119 87.761719 121.761719 82.355469 124.957031 76.09375 C 128.03125 70.070312 131.519531 63.238281 131.6875 50.597656 C 131.699219 49.542969 131.695312 48.515625 131.667969 47.507812 Z M 88.839844 123.390625 C 89.328125 124.085938 90.804688 126.199219 95.117188 127.289062 C 96.054688 127.527344 97.011719 126.960938 97.25 126.019531 C 97.488281 125.078125 96.921875 124.121094 95.980469 123.882812 C 92.9375 123.113281 92.050781 121.851562 91.71875 121.371094 C 88.617188 116.957031 90.546875 105.960938 91.617188 100.722656 L 110.910156 103.546875 C 111.84375 111.636719 110.753906 118.167969 107.867188 121.589844 C 106.730469 122.9375 105.269531 123.785156 103.40625 124.183594 C 102.457031 124.386719 101.851562 125.320312 102.054688 126.269531 C 102.234375 127.09375 102.960938 127.660156 103.773438 127.660156 C 103.894531 127.660156 104.019531 127.644531 104.140625 127.621094 C 106.761719 127.058594 108.917969 125.792969 110.550781 123.855469 C 113.992188 119.78125 115.367188 112.808594 114.5 104.070312 L 118.070312 104.59375 C 118.8125 113.667969 117.207031 121.171875 113.46875 125.839844 C 109.808594 130.519531 103.460938 132.257812 96.90625 131.210938 C 91.789062 130.503906 88.210938 128.609375 85.96875 125.421875 C 82.585938 120.492188 82.0625 113.386719 84.65625 99.703125 L 88.136719 100.210938 C 86.457031 108.585938 85.261719 118.296875 88.839844 123.390625 Z M 117.398438 99.28125 C 117.496094 99.851562 117.582031 100.417969 117.660156 100.980469 C 117.65625 100.980469 85.355469 96.25 85.355469 96.25 C 87.035156 87.34375 86.246094 81.71875 85.34375 75.265625 C 84.847656 71.738281 84.308594 67.90625 84.140625 63.070312 L 89.101562 63.878906 C 89.199219 63.894531 89.292969 63.902344 89.386719 63.902344 C 90.234375 63.902344 90.980469 63.289062 91.121094 62.429688 C 91.277344 61.472656 90.625 60.566406 89.667969 60.410156 L 84.089844 59.5 C 84.097656 57.8125 84.152344 56.011719 84.265625 54.074219 C 84.3125 53.277344 84.367188 52.5 84.421875 51.734375 L 89.09375 53.460938 C 89.292969 53.535156 89.5 53.570312 89.703125 53.570312 C 90.417969 53.570312 91.085938 53.132812 91.351562 52.421875 C 91.6875 51.511719 91.222656 50.5 90.3125 50.164062 L 84.742188 48.105469 C 85.003906 45.535156 85.335938 43.15625 85.738281 40.953125 L 90.050781 43.414062 C 90.324219 43.570312 90.625 43.644531 90.917969 43.644531 C 91.527344 43.644531 92.121094 43.324219 92.445312 42.757812 C 92.929688 41.914062 92.632812 40.839844 91.789062 40.359375 L 86.496094 37.339844 C 87.074219 34.929688 87.757812 32.777344 88.546875 30.863281 L 91.945312 34.523438 C 92.292969 34.898438 92.761719 35.085938 93.234375 35.085938 C 93.664062 35.085938 94.09375 34.929688 94.429688 34.613281 C 95.140625 33.953125 95.183594 32.84375 94.523438 32.132812 L 90.199219 27.480469 C 91.355469 25.476562 92.6875 23.832031 94.195312 22.53125 L 96.351562 27.042969 C 96.65625 27.671875 97.285156 28.042969 97.941406 28.042969 C 98.195312 28.042969 98.453125 27.988281 98.695312 27.871094 C 99.574219 27.449219 99.941406 26.402344 99.523438 25.527344 L 97.140625 20.542969 C 99.089844 19.535156 101.3125 18.90625 103.839844 18.65625 L 103.839844 23.816406 C 103.839844 24.789062 104.625 25.574219 105.597656 25.574219 C 106.566406 25.574219 107.351562 24.789062 107.351562 23.816406 L 107.351562 18.546875 C 109.171875 18.613281 111.171875 18.75 113.484375 19.445312 L 111.527344 24.28125 C 111.160156 25.179688 111.59375 26.207031 112.496094 26.570312 C 112.710938 26.65625 112.933594 26.699219 113.152344 26.699219 C 113.847656 26.699219 114.507812 26.285156 114.785156 25.601562 L 116.714844 20.832031 C 118.390625 21.746094 120.570312 23.515625 122.183594 25.675781 L 118.054688 29.648438 C 117.355469 30.320312 117.332031 31.433594 118.003906 32.132812 C 118.351562 32.492188 118.8125 32.671875 119.273438 32.671875 C 119.710938 32.671875 120.148438 32.507812 120.492188 32.179688 L 124.097656 28.714844 C 125.136719 30.683594 125.980469 32.921875 126.625 35.421875 L 121.40625 37.191406 C 120.488281 37.5 119.996094 38.5 120.304688 39.417969 C 120.554688 40.152344 121.238281 40.613281 121.96875 40.613281 C 122.15625 40.613281 122.347656 40.582031 122.535156 40.519531 L 127.359375 38.886719 C 127.722656 41 127.964844 43.265625 128.085938 45.6875 L 122.675781 46.398438 C 121.714844 46.523438 121.035156 47.40625 121.164062 48.371094 C 121.28125 49.253906 122.035156 49.898438 122.902344 49.898438 C 122.980469 49.898438 123.058594 49.894531 123.136719 49.882812 L 128.175781 49.21875 C 128.203125 51.082031 128.066406 54.277344 127.832031 56.253906 L 122.621094 55.730469 C 121.652344 55.632812 120.792969 56.335938 120.695312 57.300781 C 120.597656 58.265625 121.300781 59.128906 122.265625 59.226562 L 127.320312 59.734375 C 126.875 62.117188 126.289062 64.214844 125.609375 66.125 L 120.207031 64.824219 C 119.261719 64.597656 118.316406 65.175781 118.089844 66.121094 C 117.859375 67.0625 118.441406 68.011719 119.386719 68.242188 L 124.292969 69.421875 C 123.503906 71.207031 122.660156 72.859375 121.824219 74.496094 C 118.492188 81.03125 115.339844 87.199219 117.398438 99.28125 Z M 117.398438 99.28125 " fill-opacity="1" fill-rule="nonzero"/><path fill="#3d1700" d="M 116.03125 37.84375 L 99.453125 35.617188 C 98.496094 35.488281 97.609375 36.160156 97.480469 37.125 C 97.351562 38.085938 98.023438 38.96875 98.988281 39.101562 L 115.5625 41.328125 C 115.640625 41.335938 115.722656 41.34375 115.800781 41.34375 C 116.664062 41.34375 117.421875 40.699219 117.539062 39.820312 C 117.667969 38.855469 116.992188 37.972656 116.03125 37.84375 Z M 116.03125 37.84375 " fill-opacity="1" fill-rule="nonzero"/><path fill="#3d1700" d="M 105.761719 33.019531 L 111.191406 33.75 C 111.269531 33.761719 111.351562 33.765625 111.429688 33.765625 C 112.292969 33.765625 113.050781 33.125 113.167969 32.242188 C 113.296875 31.28125 112.621094 30.394531 111.660156 30.265625 L 106.230469 29.539062 C 105.269531 29.410156 104.382812 30.082031 104.253906 31.046875 C 104.125 32.007812 104.800781 32.890625 105.761719 33.019531 Z M 105.761719 33.019531 " fill-opacity="1" fill-rule="nonzero"/><path fill="#3d1700" d="M 115.390625 46.421875 L 98.816406 44.195312 C 97.855469 44.066406 96.96875 44.742188 96.839844 45.703125 C 96.710938 46.664062 97.386719 47.550781 98.347656 47.679688 L 114.925781 49.90625 C 115.003906 49.917969 115.082031 49.921875 115.160156 49.921875 C 116.027344 49.921875 116.78125 49.28125 116.898438 48.398438 C 117.027344 47.433594 116.355469 46.550781 115.390625 46.421875 Z M 115.390625 46.421875 " fill-opacity="1" fill-rule="nonzero"/><path fill="#3d1700" d="M 114.519531 54.648438 L 97.945312 52.421875 C 96.984375 52.292969 96.097656 52.96875 95.96875 53.929688 C 95.839844 54.894531 96.511719 55.777344 97.476562 55.90625 L 114.050781 58.132812 C 114.132812 58.144531 114.210938 58.148438 114.289062 58.148438 C 115.15625 58.148438 115.910156 57.507812 116.027344 56.625 C 116.15625 55.664062 115.480469 54.777344 114.519531 54.648438 Z M 114.519531 54.648438 " fill-opacity="1" fill-rule="nonzero"/><path fill="#3d1700" d="M 52.039062 117.023438 C 52.039062 117.257812 51.996094 117.480469 51.90625 117.695312 C 51.816406 117.910156 51.691406 118.101562 51.523438 118.265625 C 51.359375 118.429688 51.171875 118.558594 50.953125 118.648438 C 50.738281 118.738281 50.515625 118.78125 50.28125 118.78125 C 50.050781 118.78125 49.824219 118.738281 49.609375 118.648438 C 49.394531 118.558594 49.203125 118.429688 49.039062 118.265625 C 48.875 118.101562 48.746094 117.910156 48.660156 117.695312 C 48.570312 117.480469 48.523438 117.257812 48.523438 117.023438 C 48.523438 116.792969 48.570312 116.566406 48.660156 116.351562 C 48.746094 116.136719 48.875 115.945312 49.039062 115.78125 C 49.203125 115.617188 49.394531 115.488281 49.609375 115.398438 C 49.824219 115.3125 50.050781 115.265625 50.28125 115.265625 C 50.515625 115.265625 50.738281 115.3125 50.953125 115.398438 C 51.171875 115.488281 51.359375 115.617188 51.523438 115.78125 C 51.691406 115.945312 51.816406 116.136719 51.90625 116.351562 C 51.996094 116.566406 52.039062 116.792969 52.039062 117.023438 Z M 52.039062 117.023438 " fill-opacity="1" fill-rule="nonzero"/><path fill="#3d1700" d="M 101.453125 117.289062 C 101.453125 117.523438 101.410156 117.746094 101.320312 117.964844 C 101.230469 118.179688 101.101562 118.367188 100.9375 118.535156 C 100.773438 118.699219 100.582031 118.824219 100.367188 118.914062 C 100.152344 119.003906 99.929688 119.046875 99.695312 119.046875 C 99.460938 119.046875 99.238281 119.003906 99.023438 118.914062 C 98.808594 118.824219 98.617188 118.699219 98.453125 118.535156 C 98.289062 118.367188 98.160156 118.179688 98.070312 117.964844 C 97.984375 117.746094 97.9375 117.523438 97.9375 117.289062 C 97.9375 117.058594 97.984375 116.832031 98.070312 116.617188 C 98.160156 116.402344 98.289062 116.210938 98.453125 116.046875 C 98.617188 115.882812 98.808594 115.757812 99.023438 115.667969 C 99.238281 115.578125 99.460938 115.53125 99.695312 115.53125 C 99.929688 115.53125 100.152344 115.578125 100.367188 115.667969 C 100.582031 115.757812 100.773438 115.882812 100.9375 116.046875 C 101.101562 116.210938 101.230469 116.402344 101.320312 116.617188 C 101.410156 116.832031 101.453125 117.058594 101.453125 117.289062 Z M 101.453125 117.289062 " fill-opacity="1" fill-rule="nonzero"/></svg>