<svg xmlns="http://www.w3.org/2000/svg" xmlns:xlink="http://www.w3.org/1999/xlink" width="200" zoomAndPan="magnify" viewBox="0 0 150 149.999998" height="200" preserveAspectRatio="xMidYMid meet" version="1.0"><defs><clipPath id="9ac801c575"><path d="M 64 43 L 137.953125 43 L 137.953125 123 L 64 123 Z M 64 43 " clip-rule="nonzero"/></clipPath><clipPath id="a55d190b26"><path d="M 17.953125 85 L 62 85 L 62 132 L 17.953125 132 Z M 17.953125 85 " clip-rule="nonzero"/></clipPath></defs><g clip-path="url(#9ac801c575)"><path fill="#3d1700" d="M 137.597656 82.1875 C 137.300781 81.59375 136.554688 81.296875 135.960938 81.148438 C 132.539062 81.148438 103.074219 79.957031 103.074219 45.730469 C 103.074219 44.6875 102.179688 43.796875 101.140625 43.796875 C 100.097656 43.796875 99.203125 44.6875 99.203125 45.730469 C 99.203125 79.957031 69.738281 81.148438 66.464844 81.148438 C 66.019531 81.148438 65.574219 81.296875 65.277344 81.59375 C 64.976562 81.742188 64.828125 82.039062 64.679688 82.1875 C 64.382812 82.785156 64.382812 83.527344 64.679688 84.121094 C 64.976562 84.71875 65.722656 85.164062 66.464844 85.164062 C 66.464844 85.164062 66.464844 85.164062 66.613281 85.164062 C 70.039062 85.164062 99.351562 86.355469 99.351562 120.582031 C 99.351562 121.621094 100.246094 122.515625 101.289062 122.515625 C 102.328125 122.515625 103.222656 121.625 103.222656 120.582031 C 103.222656 86.503906 132.539062 85.164062 135.960938 85.164062 C 136.703125 85.164062 137.300781 84.71875 137.746094 84.121094 C 138.042969 83.527344 138.042969 82.785156 137.597656 82.1875 Z M 101.140625 105.996094 C 96.824219 91.859375 86.257812 85.757812 77.925781 83.082031 C 86.257812 80.402344 96.824219 74.300781 101.140625 60.164062 C 105.453125 74.300781 116.019531 80.402344 124.351562 83.082031 C 116.019531 85.757812 105.453125 91.859375 101.140625 105.996094 Z M 101.140625 105.996094 " fill-opacity="1" fill-rule="nonzero"/></g><path fill="#3d1700" d="M 76.585938 43.496094 C 77.625 43.496094 78.519531 42.605469 78.519531 41.414062 C 78.519531 40.371094 77.625 39.480469 76.585938 39.480469 C 74.800781 39.480469 58.726562 38.882812 58.726562 20.132812 C 58.726562 19.09375 57.835938 18.199219 56.792969 18.199219 C 55.75 18.199219 54.859375 19.09375 54.859375 20.132812 C 54.859375 38.882812 38.789062 39.480469 37 39.480469 C 36.851562 39.480469 36.851562 39.480469 36.851562 39.480469 C 35.8125 39.628906 35.066406 40.371094 35.066406 41.414062 C 35.066406 42.457031 35.960938 43.347656 37 43.347656 C 38.9375 43.347656 54.859375 43.945312 54.859375 62.695312 C 54.859375 63.734375 55.75 64.628906 56.792969 64.628906 C 57.6875 64.777344 58.578125 63.882812 58.578125 62.84375 C 58.578125 44.09375 74.652344 43.496094 76.4375 43.496094 Z M 56.644531 51.980469 C 54.261719 46.324219 49.949219 43.199219 45.929688 41.414062 C 50.246094 39.628906 54.261719 36.207031 56.644531 30.847656 C 59.027344 36.503906 63.339844 39.628906 67.359375 41.414062 C 63.042969 43.199219 59.027344 46.621094 56.644531 51.980469 Z M 56.644531 51.980469 " fill-opacity="1" fill-rule="nonzero"/><g clip-path="url(#a55d190b26)"><path fill="#3d1700" d="M 59.472656 106.59375 C 57.6875 106.59375 41.613281 105.996094 41.613281 87.246094 C 41.613281 86.207031 40.722656 85.3125 39.679688 85.3125 C 38.636719 85.3125 37.746094 86.207031 37.746094 87.246094 C 37.746094 105.996094 21.675781 106.59375 19.886719 106.59375 C 19.738281 106.59375 19.738281 106.59375 19.738281 106.59375 C 18.699219 106.742188 17.953125 107.484375 17.953125 108.527344 C 17.953125 109.570312 18.847656 110.460938 19.886719 110.460938 C 21.824219 110.460938 37.746094 111.058594 37.746094 129.808594 C 37.746094 130.847656 38.636719 131.742188 39.679688 131.742188 C 40.574219 132.039062 41.464844 131.148438 41.464844 129.957031 C 41.464844 111.207031 57.539062 110.609375 59.324219 110.609375 L 59.472656 110.609375 C 60.511719 110.609375 61.40625 109.71875 61.40625 108.527344 C 61.40625 107.484375 60.511719 106.59375 59.472656 106.59375 Z M 39.53125 119.242188 C 37 113.585938 32.835938 110.460938 28.816406 108.675781 C 33.132812 106.890625 37.148438 103.46875 39.53125 98.109375 C 41.914062 103.765625 46.226562 106.890625 50.246094 108.675781 C 45.929688 110.460938 41.914062 113.886719 39.53125 119.242188 Z M 39.53125 119.242188 " fill-opacity="1" fill-rule="nonzero"/></g></svg>