<svg xmlns="http://www.w3.org/2000/svg" xmlns:xlink="http://www.w3.org/1999/xlink" width="200" zoomAndPan="magnify" viewBox="0 0 150 149.999998" height="200" preserveAspectRatio="xMidYMid meet" version="1.0"><path fill="#3d1700" d="M 38.894531 74.996094 C 38.234375 74.996094 37.582031 75.0625 36.9375 75.191406 C 36.292969 75.320312 35.664062 75.507812 35.054688 75.761719 C 34.449219 76.011719 33.871094 76.320312 33.324219 76.6875 C 32.773438 77.054688 32.269531 77.46875 31.804688 77.933594 C 31.335938 78.402344 30.921875 78.90625 30.554688 79.453125 C 30.191406 80.003906 29.882812 80.578125 29.628906 81.1875 C 29.378906 81.796875 29.1875 82.425781 29.058594 83.070312 C 28.929688 83.714844 28.867188 84.367188 28.867188 85.027344 C 28.867188 85.683594 28.929688 86.335938 29.058594 86.984375 C 29.1875 87.628906 29.378906 88.253906 29.628906 88.863281 C 29.882812 89.472656 30.191406 90.050781 30.554688 90.597656 C 30.921875 91.144531 31.335938 91.652344 31.804688 92.117188 C 32.269531 92.582031 32.773438 93 33.324219 93.363281 C 33.871094 93.730469 34.449219 94.039062 35.054688 94.292969 C 35.664062 94.542969 36.292969 94.734375 36.9375 94.863281 C 37.582031 94.992188 38.234375 95.054688 38.894531 95.054688 C 39.554688 95.054688 40.203125 94.992188 40.851562 94.863281 C 41.496094 94.734375 42.125 94.542969 42.730469 94.292969 C 43.339844 94.039062 43.917969 93.730469 44.464844 93.363281 C 45.011719 93 45.519531 92.582031 45.984375 92.117188 C 46.453125 91.652344 46.867188 91.144531 47.234375 90.597656 C 47.597656 90.050781 47.90625 89.472656 48.160156 88.863281 C 48.410156 88.253906 48.601562 87.628906 48.730469 86.984375 C 48.859375 86.335938 48.921875 85.683594 48.921875 85.027344 C 48.921875 84.367188 48.855469 83.714844 48.726562 83.070312 C 48.597656 82.425781 48.410156 81.796875 48.15625 81.191406 C 47.902344 80.582031 47.59375 80.003906 47.230469 79.457031 C 46.863281 78.910156 46.449219 78.402344 45.980469 77.9375 C 45.515625 77.472656 45.011719 77.058594 44.464844 76.691406 C 43.914062 76.324219 43.339844 76.015625 42.730469 75.765625 C 42.121094 75.511719 41.496094 75.320312 40.851562 75.191406 C 40.203125 75.0625 39.550781 75 38.894531 74.996094 Z M 38.894531 91.042969 C 38.5 91.042969 38.109375 91.003906 37.71875 90.929688 C 37.332031 90.851562 36.957031 90.738281 36.589844 90.585938 C 36.226562 90.433594 35.878906 90.25 35.550781 90.03125 C 35.222656 89.808594 34.917969 89.558594 34.640625 89.28125 C 34.359375 89 34.109375 88.699219 33.890625 88.371094 C 33.671875 88.039062 33.484375 87.695312 33.335938 87.328125 C 33.183594 86.964844 33.070312 86.585938 32.992188 86.199219 C 32.914062 85.8125 32.878906 85.421875 32.878906 85.027344 C 32.878906 84.632812 32.914062 84.238281 32.992188 83.851562 C 33.070312 83.464844 33.183594 83.089844 33.335938 82.722656 C 33.484375 82.359375 33.671875 82.011719 33.890625 81.683594 C 34.109375 81.355469 34.359375 81.050781 34.640625 80.769531 C 34.917969 80.492188 35.222656 80.242188 35.550781 80.023438 C 35.878906 79.804688 36.226562 79.617188 36.589844 79.46875 C 36.957031 79.316406 37.332031 79.203125 37.71875 79.125 C 38.109375 79.046875 38.5 79.007812 38.894531 79.007812 C 39.289062 79.007812 39.679688 79.046875 40.066406 79.125 C 40.457031 79.203125 40.832031 79.316406 41.195312 79.46875 C 41.5625 79.617188 41.910156 79.804688 42.238281 80.023438 C 42.566406 80.242188 42.871094 80.492188 43.148438 80.769531 C 43.429688 81.050781 43.679688 81.355469 43.898438 81.683594 C 44.117188 82.011719 44.300781 82.359375 44.453125 82.722656 C 44.605469 83.089844 44.71875 83.464844 44.796875 83.851562 C 44.871094 84.238281 44.910156 84.632812 44.910156 85.027344 C 44.910156 85.421875 44.871094 85.8125 44.792969 86.199219 C 44.71875 86.585938 44.601562 86.964844 44.453125 87.328125 C 44.300781 87.691406 44.113281 88.039062 43.894531 88.367188 C 43.675781 88.695312 43.425781 89 43.148438 89.277344 C 42.867188 89.558594 42.5625 89.808594 42.234375 90.027344 C 41.90625 90.246094 41.5625 90.433594 41.195312 90.582031 C 40.832031 90.734375 40.453125 90.847656 40.066406 90.925781 C 39.679688 91.003906 39.289062 91.042969 38.894531 91.042969 Z M 56.945312 97.0625 C 56.289062 97.0625 55.636719 97.125 54.988281 97.253906 C 54.34375 97.382812 53.714844 97.570312 53.109375 97.824219 C 52.5 98.074219 51.921875 98.386719 51.375 98.75 C 50.828125 99.117188 50.320312 99.53125 49.855469 99.996094 C 49.390625 100.464844 48.972656 100.96875 48.605469 101.519531 C 48.242188 102.066406 47.933594 102.644531 47.679688 103.25 C 47.429688 103.859375 47.238281 104.488281 47.109375 105.132812 C 46.980469 105.777344 46.917969 106.429688 46.917969 107.089844 C 46.917969 107.746094 46.980469 108.398438 47.109375 109.046875 C 47.238281 109.691406 47.429688 110.320312 47.679688 110.925781 C 47.933594 111.535156 48.242188 112.113281 48.605469 112.660156 C 48.972656 113.207031 49.390625 113.714844 49.855469 114.179688 C 50.320312 114.644531 50.828125 115.0625 51.375 115.429688 C 51.921875 115.792969 52.5 116.101562 53.109375 116.355469 C 53.714844 116.605469 54.34375 116.796875 54.988281 116.925781 C 55.636719 117.054688 56.289062 117.117188 56.945312 117.117188 C 57.605469 117.117188 58.257812 117.054688 58.902344 116.925781 C 59.546875 116.796875 60.175781 116.605469 60.785156 116.355469 C 61.390625 116.101562 61.96875 115.792969 62.515625 115.429688 C 63.066406 115.0625 63.570312 114.644531 64.039062 114.179688 C 64.503906 113.714844 64.917969 113.207031 65.285156 112.660156 C 65.648438 112.113281 65.960938 111.535156 66.210938 110.925781 C 66.464844 110.320312 66.652344 109.691406 66.78125 109.046875 C 66.910156 108.398438 66.972656 107.746094 66.976562 107.089844 C 66.972656 106.429688 66.910156 105.777344 66.78125 105.132812 C 66.652344 104.488281 66.460938 103.863281 66.207031 103.253906 C 65.957031 102.644531 65.648438 102.066406 65.28125 101.519531 C 64.914062 100.972656 64.5 100.46875 64.035156 100 C 63.570312 99.535156 63.0625 99.121094 62.515625 98.753906 C 61.96875 98.386719 61.390625 98.078125 60.78125 97.828125 C 60.175781 97.574219 59.546875 97.382812 58.902344 97.253906 C 58.257812 97.125 57.605469 97.0625 56.945312 97.0625 Z M 56.945312 113.105469 C 56.550781 113.105469 56.160156 113.066406 55.773438 112.992188 C 55.382812 112.914062 55.007812 112.800781 54.644531 112.648438 C 54.277344 112.496094 53.929688 112.3125 53.601562 112.09375 C 53.273438 111.871094 52.96875 111.625 52.691406 111.34375 C 52.410156 111.066406 52.164062 110.761719 51.941406 110.433594 C 51.722656 110.105469 51.539062 109.757812 51.386719 109.390625 C 51.234375 109.027344 51.121094 108.652344 51.042969 108.261719 C 50.96875 107.875 50.929688 107.484375 50.929688 107.089844 C 50.929688 106.695312 50.96875 106.304688 51.042969 105.914062 C 51.121094 105.527344 51.234375 105.152344 51.386719 104.785156 C 51.539062 104.421875 51.722656 104.074219 51.941406 103.746094 C 52.164062 103.417969 52.410156 103.113281 52.691406 102.835938 C 52.96875 102.554688 53.273438 102.304688 53.601562 102.085938 C 53.929688 101.867188 54.277344 101.679688 54.644531 101.53125 C 55.007812 101.378906 55.382812 101.265625 55.773438 101.1875 C 56.160156 101.109375 56.550781 101.070312 56.945312 101.070312 C 57.339844 101.070312 57.730469 101.109375 58.121094 101.1875 C 58.507812 101.265625 58.882812 101.378906 59.25 101.53125 C 59.613281 101.679688 59.960938 101.867188 60.289062 102.085938 C 60.617188 102.304688 60.921875 102.554688 61.199219 102.835938 C 61.480469 103.113281 61.730469 103.417969 61.949219 103.746094 C 62.167969 104.074219 62.355469 104.421875 62.503906 104.785156 C 62.65625 105.152344 62.769531 105.527344 62.847656 105.914062 C 62.925781 106.304688 62.964844 106.695312 62.964844 107.089844 C 62.960938 107.484375 62.921875 107.875 62.847656 108.261719 C 62.769531 108.648438 62.65625 109.027344 62.503906 109.390625 C 62.351562 109.753906 62.167969 110.101562 61.945312 110.429688 C 61.726562 110.757812 61.476562 111.0625 61.199219 111.34375 C 60.917969 111.621094 60.617188 111.871094 60.289062 112.089844 C 59.960938 112.308594 59.613281 112.496094 59.246094 112.648438 C 58.882812 112.796875 58.507812 112.914062 58.121094 112.988281 C 57.730469 113.066406 57.339844 113.105469 56.945312 113.105469 Z M 44.910156 66.976562 C 45.570312 66.972656 46.222656 66.910156 46.867188 66.78125 C 47.515625 66.652344 48.140625 66.464844 48.75 66.210938 C 49.359375 65.960938 49.9375 65.648438 50.484375 65.285156 C 51.03125 64.917969 51.539062 64.503906 52.003906 64.039062 C 52.46875 63.570312 52.882812 63.066406 53.25 62.515625 C 53.617188 61.96875 53.925781 61.390625 54.175781 60.785156 C 54.429688 60.175781 54.617188 59.546875 54.746094 58.902344 C 54.875 58.257812 54.941406 57.605469 54.941406 56.945312 C 54.941406 56.289062 54.875 55.636719 54.746094 54.988281 C 54.617188 54.34375 54.429688 53.714844 54.175781 53.109375 C 53.925781 52.5 53.617188 51.921875 53.25 51.375 C 52.882812 50.828125 52.46875 50.320312 52.003906 49.855469 C 51.539062 49.390625 51.03125 48.972656 50.484375 48.605469 C 49.9375 48.242188 49.359375 47.933594 48.75 47.679688 C 48.140625 47.429688 47.515625 47.238281 46.867188 47.109375 C 46.222656 46.980469 45.570312 46.917969 44.910156 46.917969 C 44.253906 46.917969 43.601562 46.980469 42.953125 47.109375 C 42.308594 47.238281 41.683594 47.429688 41.074219 47.679688 C 40.464844 47.933594 39.886719 48.242188 39.339844 48.605469 C 38.792969 48.972656 38.285156 49.390625 37.820312 49.855469 C 37.355469 50.320312 36.9375 50.828125 36.574219 51.375 C 36.207031 51.921875 35.898438 52.5 35.644531 53.109375 C 35.394531 53.714844 35.203125 54.34375 35.074219 54.988281 C 34.945312 55.636719 34.882812 56.289062 34.882812 56.945312 C 34.882812 57.605469 34.949219 58.257812 35.078125 58.902344 C 35.207031 59.546875 35.398438 60.175781 35.648438 60.78125 C 35.902344 61.390625 36.210938 61.96875 36.578125 62.515625 C 36.941406 63.0625 37.359375 63.570312 37.824219 64.035156 C 38.289062 64.5 38.796875 64.914062 39.34375 65.28125 C 39.890625 65.648438 40.46875 65.957031 41.074219 66.207031 C 41.683594 66.460938 42.308594 66.652344 42.957031 66.78125 C 43.601562 66.910156 44.253906 66.972656 44.910156 66.976562 Z M 44.910156 50.929688 C 45.304688 50.929688 45.699219 50.96875 46.085938 51.042969 C 46.472656 51.121094 46.847656 51.234375 47.214844 51.386719 C 47.578125 51.539062 47.925781 51.722656 48.253906 51.941406 C 48.582031 52.164062 48.886719 52.410156 49.167969 52.691406 C 49.445312 52.96875 49.695312 53.273438 49.914062 53.601562 C 50.132812 53.929688 50.320312 54.277344 50.46875 54.644531 C 50.621094 55.007812 50.734375 55.382812 50.8125 55.773438 C 50.890625 56.160156 50.929688 56.550781 50.929688 56.945312 C 50.929688 57.339844 50.890625 57.730469 50.8125 58.121094 C 50.734375 58.507812 50.621094 58.882812 50.46875 59.25 C 50.320312 59.613281 50.132812 59.960938 49.914062 60.289062 C 49.695312 60.617188 49.445312 60.921875 49.167969 61.199219 C 48.886719 61.480469 48.582031 61.730469 48.253906 61.949219 C 47.925781 62.167969 47.578125 62.355469 47.214844 62.503906 C 46.847656 62.65625 46.472656 62.769531 46.085938 62.847656 C 45.699219 62.925781 45.304688 62.964844 44.910156 62.964844 C 44.515625 62.964844 44.125 62.925781 43.738281 62.847656 C 43.351562 62.769531 42.972656 62.65625 42.609375 62.503906 C 42.242188 62.355469 41.898438 62.167969 41.570312 61.949219 C 41.238281 61.730469 40.9375 61.480469 40.65625 61.199219 C 40.378906 60.921875 40.128906 60.617188 39.910156 60.289062 C 39.6875 59.960938 39.503906 59.613281 39.351562 59.25 C 39.199219 58.882812 39.085938 58.507812 39.011719 58.121094 C 38.933594 57.730469 38.894531 57.339844 38.894531 56.945312 C 38.894531 56.550781 38.933594 56.160156 39.011719 55.773438 C 39.089844 55.386719 39.203125 55.007812 39.355469 54.644531 C 39.503906 54.28125 39.691406 53.933594 39.910156 53.605469 C 40.128906 53.277344 40.378906 52.972656 40.660156 52.691406 C 40.9375 52.414062 41.242188 52.164062 41.570312 51.945312 C 41.898438 51.726562 42.246094 51.539062 42.609375 51.386719 C 42.976562 51.238281 43.351562 51.121094 43.738281 51.046875 C 44.125 50.96875 44.515625 50.929688 44.910156 50.929688 Z M 70.984375 52.933594 C 71.644531 52.933594 72.296875 52.871094 72.941406 52.742188 C 73.589844 52.613281 74.214844 52.421875 74.824219 52.171875 C 75.433594 51.917969 76.011719 51.609375 76.558594 51.246094 C 77.105469 50.878906 77.613281 50.460938 78.078125 49.996094 C 78.542969 49.53125 78.957031 49.023438 79.324219 48.476562 C 79.691406 47.929688 80 47.351562 80.25 46.742188 C 80.503906 46.136719 80.695312 45.507812 80.820312 44.863281 C 80.949219 44.214844 81.015625 43.5625 81.015625 42.90625 C 81.015625 42.246094 80.949219 41.59375 80.820312 40.949219 C 80.695312 40.304688 80.503906 39.675781 80.25 39.066406 C 80 38.460938 79.691406 37.882812 79.324219 37.335938 C 78.957031 36.785156 78.542969 36.28125 78.078125 35.8125 C 77.613281 35.347656 77.105469 34.933594 76.558594 34.566406 C 76.011719 34.203125 75.433594 33.890625 74.824219 33.640625 C 74.214844 33.386719 73.589844 33.199219 72.941406 33.070312 C 72.296875 32.941406 71.644531 32.878906 70.984375 32.878906 C 70.328125 32.878906 69.675781 32.941406 69.03125 33.070312 C 68.382812 33.199219 67.757812 33.386719 67.148438 33.640625 C 66.539062 33.890625 65.960938 34.203125 65.414062 34.566406 C 64.867188 34.933594 64.359375 35.347656 63.894531 35.8125 C 63.429688 36.28125 63.011719 36.785156 62.648438 37.335938 C 62.28125 37.882812 61.972656 38.460938 61.722656 39.066406 C 61.46875 39.675781 61.277344 40.304688 61.148438 40.949219 C 61.023438 41.59375 60.957031 42.246094 60.957031 42.90625 C 60.957031 43.5625 61.023438 44.214844 61.152344 44.863281 C 61.28125 45.507812 61.472656 46.132812 61.722656 46.742188 C 61.976562 47.351562 62.285156 47.925781 62.652344 48.476562 C 63.015625 49.023438 63.433594 49.527344 63.898438 49.992188 C 64.363281 50.460938 64.871094 50.875 65.417969 51.242188 C 65.964844 51.605469 66.542969 51.914062 67.148438 52.167969 C 67.757812 52.421875 68.386719 52.609375 69.03125 52.738281 C 69.675781 52.867188 70.328125 52.933594 70.984375 52.933594 Z M 70.984375 36.886719 C 71.382812 36.886719 71.773438 36.925781 72.160156 37.003906 C 72.546875 37.082031 72.921875 37.195312 73.289062 37.347656 C 73.652344 37.496094 74 37.683594 74.328125 37.902344 C 74.65625 38.121094 74.960938 38.371094 75.242188 38.652344 C 75.519531 38.929688 75.769531 39.234375 75.988281 39.5625 C 76.207031 39.890625 76.394531 40.238281 76.546875 40.601562 C 76.695312 40.96875 76.8125 41.34375 76.886719 41.730469 C 76.964844 42.121094 77.003906 42.511719 77.003906 42.90625 C 77.003906 43.300781 76.964844 43.691406 76.886719 44.078125 C 76.8125 44.46875 76.695312 44.84375 76.546875 45.207031 C 76.394531 45.574219 76.207031 45.921875 75.988281 46.25 C 75.769531 46.578125 75.519531 46.882812 75.242188 47.160156 C 74.960938 47.441406 74.65625 47.6875 74.328125 47.910156 C 74 48.128906 73.652344 48.3125 73.289062 48.464844 C 72.921875 48.617188 72.546875 48.730469 72.160156 48.808594 C 71.773438 48.882812 71.382812 48.921875 70.984375 48.921875 C 70.589844 48.921875 70.199219 48.882812 69.8125 48.808594 C 69.425781 48.730469 69.046875 48.617188 68.683594 48.464844 C 68.320312 48.3125 67.972656 48.128906 67.644531 47.910156 C 67.316406 47.6875 67.011719 47.441406 66.730469 47.160156 C 66.453125 46.882812 66.203125 46.578125 65.984375 46.25 C 65.761719 45.921875 65.578125 45.574219 65.425781 45.207031 C 65.277344 44.84375 65.160156 44.46875 65.085938 44.078125 C 65.007812 43.691406 64.96875 43.300781 64.96875 42.90625 C 64.96875 42.511719 65.007812 42.121094 65.085938 41.730469 C 65.164062 41.34375 65.277344 40.96875 65.429688 40.605469 C 65.578125 40.238281 65.765625 39.894531 65.984375 39.5625 C 66.203125 39.234375 66.453125 38.933594 66.734375 38.652344 C 67.011719 38.375 67.316406 38.125 67.644531 37.90625 C 67.972656 37.683594 68.320312 37.5 68.683594 37.347656 C 69.050781 37.195312 69.425781 37.082031 69.8125 37.003906 C 70.199219 36.929688 70.589844 36.890625 70.984375 36.886719 Z M 133.894531 20.113281 C 128.75 14.96875 113.40625 26.863281 103.996094 35.707031 C 103.167969 35.003906 102.320312 34.328125 101.453125 33.679688 C 100.585938 33.027344 99.699219 32.402344 98.792969 31.808594 C 97.886719 31.210938 96.964844 30.640625 96.023438 30.097656 C 95.085938 29.554688 94.128906 29.042969 93.160156 28.558594 C 92.1875 28.074219 91.203125 27.621094 90.207031 27.195312 C 89.210938 26.769531 88.199219 26.375 87.175781 26.007812 C 86.15625 25.644531 85.125 25.3125 84.082031 25.007812 C 83.042969 24.707031 81.992188 24.433594 80.933594 24.195312 C 79.875 23.957031 78.8125 23.746094 77.742188 23.570312 C 76.671875 23.398438 75.59375 23.253906 74.515625 23.140625 C 73.4375 23.03125 72.355469 22.953125 71.273438 22.90625 C 70.1875 22.859375 69.105469 22.847656 68.019531 22.867188 C 66.933594 22.886719 65.851562 22.9375 64.769531 23.023438 C 63.691406 23.105469 62.613281 23.222656 61.539062 23.371094 C 60.460938 23.519531 59.394531 23.703125 58.332031 23.914062 C 57.265625 24.128906 56.210938 24.375 55.160156 24.648438 C 54.113281 24.925781 53.074219 25.234375 52.042969 25.574219 C 51.011719 25.914062 49.992188 26.28125 48.984375 26.683594 C 47.976562 27.082031 46.980469 27.515625 46 27.972656 C 45.015625 28.433594 44.050781 28.921875 43.097656 29.441406 C 42.144531 29.960938 41.207031 30.507812 40.289062 31.082031 C 39.367188 31.65625 38.464844 32.257812 37.582031 32.886719 C 36.699219 33.515625 35.835938 34.171875 34.988281 34.851562 C 34.144531 35.53125 33.320312 36.238281 32.519531 36.96875 C 31.71875 37.699219 30.9375 38.453125 30.179688 39.230469 C 29.425781 40.007812 28.691406 40.804688 27.984375 41.625 C 27.273438 42.449219 26.589844 43.289062 25.933594 44.152344 C 25.273438 45.015625 24.644531 45.894531 24.039062 46.796875 C 23.433594 47.695312 22.855469 48.613281 22.304688 49.546875 C 21.753906 50.484375 21.234375 51.433594 20.738281 52.398438 C 20.246094 53.367188 19.785156 54.347656 19.351562 55.339844 C 18.914062 56.335938 18.511719 57.339844 18.136719 58.359375 C 17.765625 59.378906 17.421875 60.40625 17.109375 61.445312 C 16.796875 62.484375 16.519531 63.53125 16.269531 64.585938 C 16.019531 65.644531 15.804688 66.707031 15.617188 67.773438 C 15.433594 68.84375 15.28125 69.917969 15.160156 70.996094 C 15.039062 72.074219 14.953125 73.152344 14.898438 74.238281 C 14.839844 75.320312 14.816406 76.402344 14.828125 77.488281 C 14.835938 78.574219 14.878906 79.65625 14.953125 80.738281 C 15.027344 81.820312 15.136719 82.898438 15.277344 83.976562 C 15.414062 85.050781 15.585938 86.121094 15.789062 87.1875 C 15.996094 88.253906 16.230469 89.3125 16.496094 90.363281 C 16.765625 91.414062 17.0625 92.457031 17.394531 93.488281 C 17.722656 94.523438 18.085938 95.542969 18.476562 96.554688 C 18.867188 97.566406 19.289062 98.566406 19.742188 99.550781 C 20.195312 100.539062 20.675781 101.511719 21.183594 102.46875 C 21.695312 103.425781 22.234375 104.367188 22.800781 105.292969 C 23.367188 106.214844 23.960938 107.125 24.582031 108.011719 C 25.203125 108.902344 25.847656 109.773438 26.523438 110.621094 C 27.195312 111.472656 27.894531 112.300781 28.617188 113.109375 C 29.339844 113.917969 30.085938 114.707031 30.859375 115.46875 C 31.628906 116.234375 32.421875 116.972656 33.234375 117.6875 C 34.050781 118.40625 34.886719 119.09375 35.742188 119.761719 C 36.597656 120.425781 37.476562 121.066406 38.371094 121.679688 C 39.265625 122.292969 40.175781 122.878906 41.105469 123.4375 C 42.035156 123.996094 42.984375 124.523438 43.945312 125.027344 C 44.90625 125.527344 45.882812 126 46.871094 126.441406 C 47.863281 126.882812 48.867188 127.296875 49.878906 127.679688 C 50.894531 128.0625 51.921875 128.414062 52.957031 128.734375 C 53.992188 129.054688 55.039062 129.34375 56.09375 129.601562 C 57.144531 129.863281 58.207031 130.085938 59.273438 130.28125 C 60.339844 130.476562 61.414062 130.636719 62.488281 130.769531 C 63.566406 130.898438 64.644531 130.996094 65.730469 131.0625 C 66.8125 131.125 67.894531 131.160156 68.980469 131.15625 C 74.699219 131.15625 79.191406 129.195312 81.304688 125.773438 C 82.636719 123.621094 83.628906 119.867188 80.804688 114.214844 C 80.300781 113.300781 79.917969 112.339844 79.65625 111.328125 C 79.390625 110.320312 79.253906 109.292969 79.246094 108.25 C 79.238281 107.207031 79.355469 106.179688 79.601562 105.164062 C 79.847656 104.152344 80.214844 103.183594 80.699219 102.257812 C 82.800781 98.859375 87.070312 97.0625 93.050781 97.0625 C 107.925781 97.0625 123.136719 94.675781 123.136719 77.003906 C 123.128906 72.574219 122.589844 68.210938 121.511719 63.914062 C 120.4375 59.617188 118.855469 55.515625 116.773438 51.605469 C 125.6875 42.441406 139.339844 25.566406 133.894531 20.113281 Z M 131.054688 22.949219 C 132.3125 24.304688 127.601562 35.125 112.765625 49.960938 C 109.15625 53.585938 105.339844 56.976562 101.316406 60.132812 C 99.386719 57.101562 96.90625 54.621094 93.875 52.6875 C 97.03125 48.667969 100.421875 44.851562 104.046875 41.242188 C 118.882812 26.402344 129.707031 21.699219 131.054688 22.949219 Z M 87.28125 62.738281 C 88.503906 60.351562 89.898438 58.074219 91.472656 55.90625 C 94.207031 57.589844 96.417969 59.800781 98.101562 62.535156 C 95.933594 64.109375 93.65625 65.503906 91.269531 66.722656 C 90.257812 65.078125 88.929688 63.75 87.28125 62.738281 Z M 89.039062 72.992188 C 89.039062 77.734375 84.097656 83.019531 77.003906 83.019531 C 74.839844 83.113281 72.730469 82.8125 70.679688 82.109375 C 68.628906 81.410156 66.777344 80.359375 65.121094 78.960938 C 69.367188 78.042969 71.277344 74.457031 72.882812 71.4375 C 75.019531 67.425781 76.558594 64.96875 81.015625 64.96875 C 81.542969 64.96875 82.0625 65.019531 82.578125 65.125 C 83.097656 65.226562 83.597656 65.378906 84.082031 65.582031 C 84.570312 65.785156 85.03125 66.03125 85.46875 66.324219 C 85.90625 66.617188 86.3125 66.949219 86.683594 67.320312 C 87.058594 67.695312 87.390625 68.097656 87.683594 68.535156 C 87.976562 68.972656 88.222656 69.4375 88.425781 69.921875 C 88.625 70.410156 88.777344 70.910156 88.882812 71.425781 C 88.984375 71.945312 89.039062 72.464844 89.039062 72.992188 Z M 93.050781 93.050781 C 83.648438 93.050781 79.289062 96.910156 77.289062 100.148438 C 76.613281 101.363281 76.101562 102.636719 75.75 103.980469 C 75.402344 105.320312 75.222656 106.683594 75.214844 108.070312 C 75.210938 109.457031 75.375 110.820312 75.714844 112.164062 C 76.054688 113.511719 76.554688 114.792969 77.214844 116.007812 C 78.820312 119.21875 79.050781 121.796875 77.894531 123.664062 C 76.546875 125.84375 73.214844 127.148438 68.980469 127.148438 C 67.976562 127.148438 66.976562 127.121094 65.972656 127.0625 C 64.972656 127.003906 63.972656 126.914062 62.976562 126.796875 C 61.980469 126.675781 60.988281 126.53125 60.003906 126.351562 C 59.015625 126.171875 58.035156 125.964844 57.058594 125.730469 C 56.085938 125.492188 55.117188 125.226562 54.160156 124.929688 C 53.199219 124.636719 52.25 124.3125 51.3125 123.960938 C 50.371094 123.609375 49.445312 123.230469 48.527344 122.824219 C 47.609375 122.414062 46.707031 121.980469 45.816406 121.519531 C 44.925781 121.058594 44.050781 120.570312 43.1875 120.054688 C 42.328125 119.539062 41.480469 119 40.652344 118.433594 C 39.824219 117.871094 39.011719 117.28125 38.21875 116.667969 C 37.425781 116.054688 36.652344 115.417969 35.898438 114.757812 C 35.140625 114.097656 34.40625 113.414062 33.691406 112.710938 C 32.976562 112.003906 32.285156 111.28125 31.613281 110.535156 C 30.945312 109.789062 30.296875 109.023438 29.671875 108.238281 C 29.046875 107.453125 28.445312 106.652344 27.867188 105.828125 C 27.292969 105.007812 26.742188 104.171875 26.214844 103.316406 C 25.6875 102.464844 25.1875 101.59375 24.714844 100.710938 C 24.238281 99.828125 23.792969 98.929688 23.371094 98.019531 C 22.949219 97.109375 22.558594 96.183594 22.191406 95.25 C 21.828125 94.316406 21.492188 93.371094 21.183594 92.417969 C 20.875 91.464844 20.59375 90.5 20.34375 89.527344 C 20.09375 88.558594 19.871094 87.578125 19.679688 86.59375 C 19.488281 85.609375 19.328125 84.621094 19.195312 83.625 C 19.0625 82.632812 18.960938 81.632812 18.886719 80.632812 C 18.8125 79.632812 18.769531 78.632812 18.757812 77.628906 C 18.746094 76.625 18.765625 75.625 18.8125 74.621094 C 18.859375 73.617188 18.9375 72.621094 19.042969 71.621094 C 19.152344 70.625 19.289062 69.632812 19.457031 68.640625 C 19.625 67.652344 19.820312 66.671875 20.046875 65.691406 C 20.273438 64.714844 20.527344 63.746094 20.8125 62.785156 C 21.097656 61.820312 21.410156 60.871094 21.753906 59.925781 C 22.09375 58.984375 22.464844 58.050781 22.859375 57.128906 C 23.257812 56.207031 23.683594 55.300781 24.136719 54.40625 C 24.585938 53.507812 25.066406 52.628906 25.570312 51.761719 C 26.078125 50.894531 26.605469 50.042969 27.164062 49.210938 C 27.71875 48.375 28.300781 47.558594 28.90625 46.757812 C 29.507812 45.957031 30.136719 45.175781 30.789062 44.414062 C 31.441406 43.652344 32.117188 42.910156 32.8125 42.1875 C 33.507812 41.464844 34.226562 40.765625 34.964844 40.085938 C 35.703125 39.40625 36.460938 38.75 37.242188 38.117188 C 38.019531 37.484375 38.8125 36.875 39.628906 36.289062 C 40.445312 35.703125 41.273438 35.144531 42.121094 34.605469 C 42.972656 34.070312 43.835938 33.5625 44.714844 33.078125 C 45.59375 32.59375 46.484375 32.136719 47.390625 31.707031 C 48.296875 31.277344 49.214844 30.875 50.144531 30.5 C 51.074219 30.125 52.015625 29.777344 52.96875 29.457031 C 53.917969 29.140625 54.878906 28.847656 55.847656 28.589844 C 56.816406 28.328125 57.792969 28.09375 58.773438 27.894531 C 59.757812 27.691406 60.746094 27.515625 61.738281 27.375 C 62.730469 27.230469 63.726562 27.117188 64.726562 27.035156 C 65.726562 26.949219 66.726562 26.898438 67.730469 26.875 C 68.734375 26.851562 69.734375 26.855469 70.738281 26.894531 C 71.738281 26.929688 72.742188 26.996094 73.738281 27.09375 C 74.738281 27.191406 75.730469 27.316406 76.722656 27.472656 C 77.714844 27.628906 78.699219 27.816406 79.679688 28.03125 C 80.660156 28.25 81.632812 28.492188 82.597656 28.765625 C 83.5625 29.042969 84.515625 29.34375 85.464844 29.675781 C 86.410156 30.007812 87.347656 30.367188 88.273438 30.753906 C 89.195312 31.140625 90.109375 31.554688 91.011719 32 C 91.910156 32.441406 92.796875 32.910156 93.667969 33.40625 C 94.542969 33.902344 95.398438 34.421875 96.238281 34.96875 C 97.078125 35.515625 97.902344 36.085938 98.710938 36.683594 C 99.515625 37.28125 100.304688 37.902344 101.074219 38.542969 C 92.949219 46.6875 86.570312 54.988281 83.558594 61.234375 C 82.71875 61.050781 81.871094 60.957031 81.015625 60.957031 C 73.921875 60.957031 71.382812 65.722656 69.34375 69.550781 C 67.152344 73.667969 65.800781 75.773438 61.285156 75.023438 C 60.914062 74.964844 60.554688 75.003906 60.203125 75.144531 C 59.855469 75.285156 59.566406 75.507812 59.34375 75.8125 C 59.121094 76.117188 58.992188 76.453125 58.957031 76.832031 C 58.925781 77.207031 58.996094 77.5625 59.164062 77.902344 C 59.347656 78.273438 63.878906 87.03125 77.003906 87.03125 C 86.601562 87.03125 93.050781 79.773438 93.050781 72.992188 C 93.046875 72.132812 92.957031 71.285156 92.773438 70.449219 C 100.5625 66.183594 107.570312 60.886719 113.792969 54.550781 C 115.542969 58.035156 116.867188 61.671875 117.769531 65.464844 C 118.667969 69.257812 119.121094 73.105469 119.125 77.003906 C 119.125 88.550781 111.8125 93.050781 93.050781 93.050781 Z M 93.050781 93.050781 " fill-opacity="1" fill-rule="nonzero"/></svg>