<svg id="Capa_1" xmlns="http://www.w3.org/2000/svg" enable-background="new 0 0 512.015 512.015" height="200" viewBox="0 0 512.015 512.015" width="200"><g><path fill="#3d1700" d="m509.418 417.586c-16.102-41.21-75.748-68.13-132.943-60.012-32.204 4.558-71.772.863-98.062-18.09-28.263-20.375-120.113-161.148-190.182-275.506-6.882-11.231-22.007-14.03-32.488-5.974-20.937 16.089-56.018 51.855-55.741 110.624.064 13.732 5.348 26.5 14.435 36.019 10.766 51.853 15.683 121.195 15.683 164.44v79.54c0 5.522 4.477 10 10 10h40.17c5.523 0 10-4.478 10-10v-79.54c0-27.346 1.995-67.604 6.379-103.306 34.313 33.885 74.225 86.857 108.839 168.483 6.574 15.505 22.212 25.313 39.099 24.291l247.369-6.65c7.057-.202 12.903-3.274 16.464-8.651 4.398-6.646 4.755-16 .978-25.668zm-439.128-48.499v69.54h-20.17v-69.54c0-39.029-3.926-98.917-12.442-149.055 10.755 6.142 24.837 15.499 41.005 29.386-5.79 39.655-8.393 88.093-8.393 119.669zm421.584 62.791c-.391.051-247.881 6.673-248.379 6.707-8.398.565-16.263-4.318-19.575-12.13-27.717-65.362-62.023-120.232-101.966-163.086-29.648-31.808-55.603-50.656-84.877-66.355-10.338-5.548-17.019-16.267-17.075-28.479-.237-50.145 29.927-80.84 47.928-94.674 1.063-.817 2.557-.561 3.247.564 26.154 42.688 155.207 252.206 195.539 281.281 30.941 22.308 75.824 26.994 112.559 21.67 52.679-7.475 100.194 18.518 111.514 47.488 1.347 3.449 1.34 5.985 1.085 7.014z"/></g></svg>
