<svg xmlns="http://www.w3.org/2000/svg" width="200" height="200" viewBox="0 0 64 64" preserveAspectRatio="xMidYMid meet" fill="#3d1700"><path d="m44.999 20c-.15 0-.303-.034-.446-.105-.494-.247-.694-.848-.447-1.342.682-1.363-.082-2.599-1.419-4.472-1.27-1.777-2.85-3.99-1.581-6.528.247-.494.846-.696 1.342-.447.494.247.694.848.447 1.342-.682 1.363.082 2.599 1.419 4.472 1.27 1.777 2.85 3.99 1.581 6.528-.175.351-.528.553-.896.553z"/><path d="m50.999 20c-.15 0-.303-.034-.446-.105-.494-.247-.694-.848-.447-1.342.682-1.363-.082-2.599-1.419-4.472-1.27-1.777-2.85-3.99-1.581-6.528.247-.494.846-.696 1.342-.447.494.247.694.848.447 1.342-.682 1.363.082 2.599 1.419 4.472 1.27 1.777 2.85 3.99 1.581 6.528-.175.351-.528.553-.896.553z"/><path d="m56.999 20c-.15 0-.303-.034-.446-.105-.494-.247-.694-.848-.447-1.342.682-1.363-.082-2.599-1.419-4.472-1.27-1.777-2.85-3.99-1.581-6.528.247-.494.847-.696 1.342-.447.494.247.694.848.447 1.342-.682 1.363.082 2.599 1.419 4.472 1.27 1.777 2.85 3.99 1.581 6.528-.175.351-.528.553-.896.553z"/><path d="m60 26c-1.371 0-2.156.987-2.916 1.941-1.129 1.418-2.408 3.026-6.093 3.059h-.049c-2.879 0-4.577-2.239-6.219-4.405-1.402-1.849-2.726-3.595-4.723-3.595-1.938 0-3.951 1.826-5.569 3.292-.396.359-2.115 1.787-2.665 2.241-4.575 3.772-10.27 8.467-19.766 8.467h-3c-4.962 0-9 4.038-9 9v3.25c0 2.723 1.833 5.107 4.458 5.799 3.381.89 8.302 1.951 12.542 1.951h43c2.206 0 4-1.794 4-4v-2c0-.552-.448-1-1-1s-1 .448-1 1h-36c-.552 0-1 .448-1 1s.448 1 1 1h36c0 1.103-.897 2-2 2h-43c-4.026 0-8.766-1.025-12.033-1.885-1.747-.46-2.967-2.05-2.967-3.865v-2.04c2.851.53 10.135 1.791 15 1.791h3v4c0 .552.448 1 1 1s1-.448 1-1v-4h41c.552 0 1-.448 1-1v-14c0-4.114 0-8-4-8zm-43 21c-4.826 0-12.422-1.343-14.953-1.817.406-3.476 3.369-6.183 6.953-6.183h2.738c.729.442 3.262 2.248 3.262 6 0 .552.448 1 1 1s1-.448 1-1c0-2.883-1.176-4.868-2.334-6.13 1.762-.158 3.39-.465 4.899-.89l2.727 2.727c.195.195.451.293.707.293s.512-.098.707-.293c.391-.391.391-1.023 0-1.414l-2.007-2.007c1.509-.569 2.896-1.247 4.181-1.991l2.412 2.412c.195.195.451.293.707.293s.512-.098.707-.293c.391-.391.391-1.023 0-1.414l-2.085-2.085c1.284-.852 2.471-1.748 3.581-2.635.032.044.049.095.089.134l2 2c.195.195.451.293.707.293s.512-.098.707-.293c.391-.391.391-1.023 0-1.414l-1.969-1.969c.1-.082.202-.166.301-.247.542-.447 2.305-1.911 2.736-2.302 1.218-1.104 3.059-2.774 4.225-2.774 1.003 0 1.988 1.299 3.129 2.803 1.756 2.317 3.94 5.197 7.811 5.197h.069c4.638-.042 6.445-2.312 7.64-3.813.604-.758.963-1.187 1.351-1.187 1.737 0 2 1.352 2 6v7h-26c-.552 0-1 .448-1 1s.448 1 1 1h26v4h-44.998z"/></svg>
