<svg xmlns="http://www.w3.org/2000/svg" xmlns:xlink="http://www.w3.org/1999/xlink" width="200" zoomAndPan="magnify" viewBox="0 0 150 149.999998" height="200" preserveAspectRatio="xMidYMid meet" version="1.0"><defs><clipPath id="ffd266eac0"><path d="M 25 5.398438 L 125 5.398438 L 125 135 L 25 135 Z M 25 5.398438 " clip-rule="nonzero"/></clipPath></defs><path fill="#3d1700" d="M 109.632812 82.910156 C 109.765625 83.21875 109.832031 83.539062 109.839844 83.875 C 109.84375 84.210938 109.78125 84.535156 109.65625 84.84375 C 109.53125 85.15625 109.351562 85.433594 109.117188 85.671875 C 108.882812 85.914062 108.613281 86.101562 108.304688 86.230469 C 107.996094 86.363281 107.675781 86.433594 107.339844 86.4375 C 107.003906 86.441406 106.679688 86.378906 106.367188 86.257812 C 106.054688 86.132812 105.78125 85.953125 105.539062 85.71875 C 105.300781 85.484375 105.113281 85.210938 104.980469 84.902344 C 104.847656 84.59375 104.78125 84.273438 104.777344 83.9375 C 104.773438 83.601562 104.832031 83.277344 104.957031 82.964844 C 105.082031 82.65625 105.261719 82.378906 105.496094 82.136719 C 105.730469 81.898438 106 81.710938 106.308594 81.578125 C 106.617188 81.449219 106.941406 81.378906 107.277344 81.375 C 107.613281 81.371094 107.933594 81.429688 108.246094 81.554688 C 108.558594 81.679688 108.835938 81.859375 109.074219 82.09375 C 109.316406 82.328125 109.5 82.601562 109.632812 82.910156 Z M 109.632812 82.910156 " fill-opacity="1" fill-rule="nonzero"/><g clip-path="url(#ffd266eac0)"><path fill="#3d1700" d="M 123.199219 27.117188 C 122.519531 26.640625 121.652344 26.527344 120.875 26.8125 C 116.570312 28.386719 112.011719 29.183594 107.320312 29.183594 C 100.742188 29.183594 90.160156 25.246094 77.109375 6.484375 C 76.632812 5.804688 75.855469 5.398438 75.027344 5.398438 L 74.96875 5.398438 C 74.140625 5.398438 73.363281 5.804688 72.886719 6.484375 C 59.835938 25.246094 49.253906 29.183594 42.675781 29.183594 C 37.984375 29.183594 33.425781 28.386719 29.121094 26.8125 C 28.34375 26.527344 27.476562 26.640625 26.796875 27.117188 C 26.121094 27.589844 25.714844 28.367188 25.714844 29.195312 L 25.714844 63.617188 C 25.714844 77.582031 29.734375 91.417969 37.339844 103.625 C 44.917969 115.792969 55.925781 126.121094 69.167969 133.492188 C 70.964844 134.496094 72.980469 134.996094 74.996094 134.996094 C 77.015625 134.996094 79.03125 134.496094 80.828125 133.492188 C 94.070312 126.121094 105.078125 115.792969 112.65625 103.625 C 120.261719 91.417969 124.28125 77.582031 124.28125 63.617188 L 124.28125 29.195312 C 124.28125 28.367188 123.875 27.589844 123.199219 27.117188 Z M 119.207031 63.617188 C 119.207031 76.632812 115.453125 89.539062 108.351562 100.941406 C 101.226562 112.382812 90.855469 122.105469 78.363281 129.0625 C 76.320312 130.199219 73.675781 130.199219 71.632812 129.0625 C 59.140625 122.105469 48.769531 112.382812 41.644531 100.941406 C 34.542969 89.539062 30.789062 76.632812 30.789062 63.617188 L 30.789062 32.664062 C 34.621094 33.722656 38.605469 34.253906 42.675781 34.253906 C 55.617188 34.253906 67.09375 22.878906 74.996094 12.242188 C 78.917969 17.523438 82.914062 21.925781 86.910156 25.355469 C 93.796875 31.261719 100.664062 34.253906 107.320312 34.253906 C 111.386719 34.253906 115.371094 33.722656 119.207031 32.664062 Z M 119.207031 63.617188 " fill-opacity="1" fill-rule="nonzero"/></g><path fill="#3d1700" d="M 85.363281 91.664062 L 85.363281 80.558594 L 96.46875 80.558594 C 97.871094 80.558594 99.003906 79.421875 99.003906 78.019531 L 99.003906 62.367188 C 99.003906 60.964844 97.871094 59.828125 96.46875 59.828125 L 85.363281 59.828125 L 85.363281 48.722656 C 85.363281 47.320312 84.226562 46.1875 82.824219 46.1875 L 67.171875 46.1875 C 65.769531 46.1875 64.632812 47.320312 64.632812 48.722656 L 64.632812 59.828125 L 53.527344 59.828125 C 52.125 59.828125 50.988281 60.964844 50.988281 62.367188 L 50.988281 78.019531 C 50.988281 79.421875 52.125 80.558594 53.527344 80.558594 L 64.632812 80.558594 L 64.632812 91.664062 C 64.632812 93.066406 65.769531 94.199219 67.171875 94.199219 L 82.824219 94.199219 C 84.226562 94.199219 85.363281 93.066406 85.363281 91.664062 Z M 80.289062 78.019531 L 80.289062 89.128906 L 69.707031 89.128906 L 69.707031 78.019531 C 69.707031 76.621094 68.570312 75.484375 67.171875 75.484375 L 56.0625 75.484375 L 56.0625 64.902344 L 67.171875 64.902344 C 68.570312 64.902344 69.707031 63.765625 69.707031 62.367188 L 69.707031 51.257812 L 80.289062 51.257812 L 80.289062 62.367188 C 80.289062 63.765625 81.425781 64.902344 82.824219 64.902344 L 93.933594 64.902344 L 93.933594 75.484375 L 82.824219 75.484375 C 81.425781 75.484375 80.289062 76.621094 80.289062 78.019531 Z M 80.289062 78.019531 " fill-opacity="1" fill-rule="nonzero"/><path fill="#3d1700" d="M 104.207031 92.148438 C 102.929688 91.570312 101.425781 92.132812 100.847656 93.410156 C 96.699219 102.554688 89.785156 110.527344 80.851562 116.457031 C 79.796875 117.160156 79.417969 118.585938 79.996094 119.71875 C 80.671875 121.050781 82.410156 121.511719 83.660156 120.683594 C 93.382812 114.226562 100.921875 105.519531 105.46875 95.503906 C 106.046875 94.230469 105.480469 92.726562 104.207031 92.148438 Z M 104.207031 92.148438 " fill-opacity="1" fill-rule="nonzero"/></svg>