<svg xmlns="http://www.w3.org/2000/svg" xmlns:xlink="http://www.w3.org/1999/xlink" width="200" zoomAndPan="magnify" viewBox="0 0 150 149.999998" height="200" preserveAspectRatio="xMidYMid meet" version="1.0"><path fill="#3d1700" d="M 41 135 L 69 135 C 69.261719 135 69.523438 134.972656 69.78125 134.921875 C 70.039062 134.871094 70.289062 134.796875 70.53125 134.695312 C 70.773438 134.59375 71.003906 134.472656 71.222656 134.324219 C 71.441406 134.179688 71.644531 134.015625 71.828125 133.828125 C 72.015625 133.644531 72.179688 133.441406 72.324219 133.222656 C 72.472656 133.003906 72.59375 132.773438 72.695312 132.53125 C 72.796875 132.289062 72.871094 132.039062 72.921875 131.78125 C 72.972656 131.523438 73 131.261719 73 131 L 73 100.445312 C 73.617188 100.089844 74.105469 99.605469 74.460938 98.988281 C 74.816406 98.375 74.996094 97.710938 75 97 L 75 93 C 74.996094 92.289062 74.816406 91.625 74.460938 91.011719 C 74.105469 90.394531 73.617188 89.910156 73 89.554688 L 73 65 C 73.523438 65 74.046875 64.949219 74.5625 64.847656 C 75.074219 64.742188 75.574219 64.59375 76.0625 64.390625 C 76.546875 64.191406 77.007812 63.945312 77.445312 63.652344 C 77.882812 63.359375 78.285156 63.027344 78.65625 62.65625 C 79.027344 62.285156 79.359375 61.882812 79.652344 61.445312 C 79.945312 61.007812 80.191406 60.546875 80.390625 60.0625 C 80.59375 59.574219 80.742188 59.074219 80.847656 58.5625 C 80.949219 58.046875 81 57.523438 81 57 L 81 29 C 81 28.082031 80.90625 27.171875 80.726562 26.269531 C 80.546875 25.367188 80.28125 24.492188 79.929688 23.644531 C 79.578125 22.796875 79.144531 21.988281 78.636719 21.226562 C 78.125 20.460938 77.542969 19.753906 76.894531 19.105469 C 76.246094 18.457031 75.539062 17.875 74.773438 17.363281 C 74.011719 16.855469 73.203125 16.421875 72.355469 16.070312 C 71.507812 15.71875 70.632812 15.453125 69.730469 15.273438 C 68.828125 15.09375 67.917969 15 67 15 L 43 15 C 42.082031 15 41.171875 15.09375 40.269531 15.273438 C 39.367188 15.453125 38.492188 15.71875 37.644531 16.070312 C 36.796875 16.421875 35.988281 16.855469 35.226562 17.363281 C 34.460938 17.875 33.753906 18.457031 33.105469 19.105469 C 32.457031 19.753906 31.875 20.460938 31.363281 21.226562 C 30.855469 21.988281 30.421875 22.796875 30.070312 23.644531 C 29.71875 24.492188 29.453125 25.367188 29.273438 26.269531 C 29.09375 27.171875 29 28.082031 29 29 L 29 57 C 29 57.523438 29.050781 58.046875 29.152344 58.5625 C 29.257812 59.074219 29.40625 59.574219 29.609375 60.0625 C 29.808594 60.546875 30.054688 61.007812 30.347656 61.445312 C 30.640625 61.882812 30.972656 62.285156 31.34375 62.65625 C 31.714844 63.027344 32.117188 63.359375 32.554688 63.652344 C 32.992188 63.945312 33.453125 64.191406 33.9375 64.390625 C 34.425781 64.59375 34.925781 64.742188 35.4375 64.847656 C 35.953125 64.949219 36.476562 65 37 65 L 37 89.554688 C 36.382812 89.910156 35.894531 90.394531 35.539062 91.011719 C 35.183594 91.625 35.003906 92.289062 35 93 L 35 97 C 35.003906 97.710938 35.183594 98.375 35.539062 98.988281 C 35.894531 99.605469 36.382812 100.089844 37 100.445312 L 37 131 C 37 131.261719 37.027344 131.523438 37.078125 131.78125 C 37.128906 132.039062 37.203125 132.289062 37.304688 132.53125 C 37.40625 132.773438 37.527344 133.003906 37.675781 133.222656 C 37.820312 133.441406 37.984375 133.644531 38.171875 133.828125 C 38.355469 134.015625 38.558594 134.179688 38.777344 134.324219 C 38.996094 134.472656 39.226562 134.59375 39.46875 134.695312 C 39.710938 134.796875 39.960938 134.871094 40.21875 134.921875 C 40.476562 134.972656 40.738281 135 41 135 Z M 69 51 L 61 51 L 61 29 C 60.992188 28.3125 60.871094 27.644531 60.632812 27 L 67 27 C 67.265625 27 67.519531 27.050781 67.765625 27.152344 C 68.011719 27.253906 68.226562 27.398438 68.414062 27.585938 C 68.601562 27.773438 68.746094 27.988281 68.847656 28.234375 C 68.949219 28.480469 69 28.734375 69 29 Z M 57 29 L 57 53 L 53 53 L 53 29 C 53 28.734375 53.050781 28.480469 53.152344 28.234375 C 53.253906 27.988281 53.398438 27.773438 53.585938 27.585938 C 53.773438 27.398438 53.988281 27.253906 54.234375 27.152344 C 54.480469 27.050781 54.734375 27 55 27 C 55.265625 27 55.519531 27.050781 55.765625 27.152344 C 56.011719 27.253906 56.226562 27.398438 56.414062 27.585938 C 56.601562 27.773438 56.746094 27.988281 56.847656 28.234375 C 56.949219 28.480469 57 28.734375 57 29 Z M 49 29 L 49 51 L 41 51 L 41 29 C 41 28.734375 41.050781 28.480469 41.152344 28.234375 C 41.253906 27.988281 41.398438 27.773438 41.585938 27.585938 C 41.773438 27.398438 41.988281 27.253906 42.234375 27.152344 C 42.480469 27.050781 42.734375 27 43 27 L 49.367188 27 C 49.128906 27.644531 49.007812 28.3125 49 29 Z M 41 55 L 49.554688 55 C 49.910156 55.617188 50.394531 56.105469 51.011719 56.460938 C 51.625 56.816406 52.289062 56.996094 53 57 L 57 57 C 57.710938 56.996094 58.375 56.816406 58.988281 56.460938 C 59.605469 56.105469 60.089844 55.617188 60.445312 55 L 69 55 L 69 61 L 41 61 Z M 41 65 L 69 65 L 69 89 L 41 89 Z M 71 93 L 71 97 L 39 97 L 39 93 Z M 41 131 L 41 101 L 69 101 L 69 131 Z M 33 57 L 33 29 C 33 28.34375 33.066406 27.695312 33.195312 27.050781 C 33.324219 26.40625 33.511719 25.78125 33.765625 25.175781 C 34.015625 24.570312 34.324219 23.992188 34.6875 23.445312 C 35.054688 22.902344 35.46875 22.398438 35.933594 21.933594 C 36.398438 21.46875 36.902344 21.054688 37.445312 20.6875 C 37.992188 20.324219 38.570312 20.015625 39.175781 19.765625 C 39.78125 19.511719 40.40625 19.324219 41.050781 19.195312 C 41.695312 19.066406 42.34375 19 43 19 L 67 19 C 67.65625 19 68.304688 19.066406 68.949219 19.195312 C 69.59375 19.324219 70.21875 19.511719 70.824219 19.765625 C 71.429688 20.015625 72.007812 20.324219 72.554688 20.6875 C 73.097656 21.054688 73.601562 21.46875 74.066406 21.933594 C 74.53125 22.398438 74.945312 22.902344 75.3125 23.445312 C 75.675781 23.992188 75.984375 24.570312 76.234375 25.175781 C 76.488281 25.78125 76.675781 26.40625 76.804688 27.050781 C 76.933594 27.695312 77 28.34375 77 29 L 77 57 C 77 57.261719 76.972656 57.523438 76.921875 57.78125 C 76.871094 58.039062 76.796875 58.289062 76.695312 58.53125 C 76.59375 58.773438 76.472656 59.003906 76.324219 59.222656 C 76.179688 59.441406 76.015625 59.644531 75.828125 59.828125 C 75.644531 60.015625 75.441406 60.179688 75.222656 60.324219 C 75.003906 60.472656 74.773438 60.59375 74.53125 60.695312 C 74.289062 60.796875 74.039062 60.871094 73.78125 60.921875 C 73.523438 60.972656 73.261719 61 73 61 L 73 29 C 73 28.605469 72.960938 28.214844 72.882812 27.828125 C 72.808594 27.441406 72.695312 27.066406 72.542969 26.703125 C 72.390625 26.339844 72.207031 25.996094 71.988281 25.667969 C 71.769531 25.339844 71.519531 25.035156 71.242188 24.757812 C 70.964844 24.480469 70.660156 24.230469 70.332031 24.011719 C 70.003906 23.792969 69.660156 23.609375 69.296875 23.457031 C 68.933594 23.304688 68.558594 23.191406 68.171875 23.117188 C 67.785156 23.039062 67.394531 23 67 23 L 43 23 C 42.605469 23 42.214844 23.039062 41.828125 23.117188 C 41.441406 23.191406 41.066406 23.304688 40.703125 23.457031 C 40.339844 23.609375 39.996094 23.792969 39.667969 24.011719 C 39.339844 24.230469 39.035156 24.480469 38.757812 24.757812 C 38.480469 25.035156 38.230469 25.339844 38.011719 25.667969 C 37.792969 25.996094 37.609375 26.339844 37.457031 26.703125 C 37.304688 27.066406 37.191406 27.441406 37.117188 27.828125 C 37.039062 28.214844 37 28.605469 37 29 L 37 61 C 36.738281 61 36.476562 60.972656 36.21875 60.921875 C 35.960938 60.871094 35.710938 60.796875 35.46875 60.695312 C 35.226562 60.59375 34.996094 60.472656 34.777344 60.324219 C 34.558594 60.179688 34.355469 60.015625 34.171875 59.828125 C 33.984375 59.644531 33.820312 59.441406 33.675781 59.222656 C 33.527344 59.003906 33.40625 58.773438 33.304688 58.53125 C 33.203125 58.289062 33.128906 58.039062 33.078125 57.78125 C 33.027344 57.523438 33 57.261719 33 57 Z M 33 57 " fill-opacity="1" fill-rule="nonzero"/><path fill="#3d1700" d="M 55 71 C 54.605469 71 54.214844 71.039062 53.828125 71.117188 C 53.441406 71.191406 53.066406 71.304688 52.703125 71.457031 C 52.339844 71.609375 51.996094 71.792969 51.667969 72.011719 C 51.339844 72.230469 51.035156 72.480469 50.757812 72.757812 C 50.480469 73.035156 50.230469 73.339844 50.011719 73.667969 C 49.792969 73.996094 49.609375 74.339844 49.457031 74.703125 C 49.304688 75.066406 49.191406 75.441406 49.117188 75.828125 C 49.039062 76.214844 49 76.605469 49 77 C 49 77.394531 49.039062 77.785156 49.117188 78.171875 C 49.191406 78.558594 49.304688 78.933594 49.457031 79.296875 C 49.609375 79.660156 49.792969 80.003906 50.011719 80.332031 C 50.230469 80.660156 50.480469 80.964844 50.757812 81.242188 C 51.035156 81.519531 51.339844 81.769531 51.667969 81.988281 C 51.996094 82.207031 52.339844 82.390625 52.703125 82.542969 C 53.066406 82.695312 53.441406 82.808594 53.828125 82.882812 C 54.214844 82.960938 54.605469 83 55 83 C 55.394531 83 55.785156 82.960938 56.171875 82.882812 C 56.558594 82.808594 56.933594 82.695312 57.296875 82.542969 C 57.660156 82.390625 58.003906 82.207031 58.332031 81.988281 C 58.660156 81.769531 58.964844 81.519531 59.242188 81.242188 C 59.519531 80.964844 59.769531 80.660156 59.988281 80.332031 C 60.207031 80.003906 60.390625 79.660156 60.542969 79.296875 C 60.695312 78.933594 60.808594 78.558594 60.882812 78.171875 C 60.960938 77.785156 61 77.394531 61 77 C 61 76.605469 60.960938 76.214844 60.882812 75.828125 C 60.808594 75.441406 60.695312 75.066406 60.542969 74.703125 C 60.390625 74.339844 60.207031 73.996094 59.988281 73.667969 C 59.769531 73.339844 59.519531 73.035156 59.242188 72.757812 C 58.964844 72.480469 58.660156 72.230469 58.332031 72.011719 C 58.003906 71.792969 57.660156 71.609375 57.296875 71.457031 C 56.933594 71.304688 56.558594 71.191406 56.171875 71.117188 C 55.785156 71.039062 55.394531 71 55 71 Z M 55 79 C 54.734375 79 54.480469 78.949219 54.234375 78.847656 C 53.988281 78.746094 53.773438 78.601562 53.585938 78.414062 C 53.398438 78.226562 53.253906 78.011719 53.152344 77.765625 C 53.050781 77.519531 53 77.265625 53 77 C 53 76.734375 53.050781 76.480469 53.152344 76.234375 C 53.253906 75.988281 53.398438 75.773438 53.585938 75.585938 C 53.773438 75.398438 53.988281 75.253906 54.234375 75.152344 C 54.480469 75.050781 54.734375 75 55 75 C 55.265625 75 55.519531 75.050781 55.765625 75.152344 C 56.011719 75.253906 56.226562 75.398438 56.414062 75.585938 C 56.601562 75.773438 56.746094 75.988281 56.847656 76.234375 C 56.949219 76.480469 57 76.734375 57 77 C 57 77.265625 56.949219 77.519531 56.847656 77.765625 C 56.746094 78.011719 56.601562 78.226562 56.414062 78.414062 C 56.226562 78.601562 56.011719 78.746094 55.765625 78.847656 C 55.519531 78.949219 55.265625 79 55 79 Z M 55 79 " fill-opacity="1" fill-rule="nonzero"/><path fill="#3d1700" d="M 103 57 C 102.605469 57 102.214844 57.039062 101.828125 57.117188 C 101.441406 57.191406 101.066406 57.304688 100.703125 57.457031 C 100.339844 57.609375 99.996094 57.792969 99.667969 58.011719 C 99.339844 58.230469 99.035156 58.480469 98.757812 58.757812 C 98.480469 59.035156 98.230469 59.339844 98.011719 59.667969 C 97.792969 59.996094 97.609375 60.339844 97.457031 60.703125 C 97.304688 61.066406 97.191406 61.441406 97.117188 61.828125 C 97.039062 62.214844 97 62.605469 97 63 C 97 63.394531 97.039062 63.785156 97.117188 64.171875 C 97.191406 64.558594 97.304688 64.933594 97.457031 65.296875 C 97.609375 65.660156 97.792969 66.003906 98.011719 66.332031 C 98.230469 66.660156 98.480469 66.964844 98.757812 67.242188 C 99.035156 67.519531 99.339844 67.769531 99.667969 67.988281 C 99.996094 68.207031 100.339844 68.390625 100.703125 68.542969 C 101.066406 68.695312 101.441406 68.808594 101.828125 68.882812 C 102.214844 68.960938 102.605469 69 103 69 C 103.394531 69 103.785156 68.960938 104.171875 68.882812 C 104.558594 68.808594 104.933594 68.695312 105.296875 68.542969 C 105.660156 68.390625 106.003906 68.207031 106.332031 67.988281 C 106.660156 67.769531 106.964844 67.519531 107.242188 67.242188 C 107.519531 66.964844 107.769531 66.660156 107.988281 66.332031 C 108.207031 66.003906 108.390625 65.660156 108.542969 65.296875 C 108.695312 64.933594 108.808594 64.558594 108.882812 64.171875 C 108.960938 63.785156 109 63.394531 109 63 C 109 62.605469 108.960938 62.214844 108.882812 61.828125 C 108.808594 61.441406 108.695312 61.066406 108.542969 60.703125 C 108.390625 60.339844 108.207031 59.996094 107.988281 59.667969 C 107.769531 59.339844 107.519531 59.035156 107.242188 58.757812 C 106.964844 58.480469 106.660156 58.230469 106.332031 58.011719 C 106.003906 57.792969 105.660156 57.609375 105.296875 57.457031 C 104.933594 57.304688 104.558594 57.191406 104.171875 57.117188 C 103.785156 57.039062 103.394531 57 103 57 Z M 103 65 C 102.734375 65 102.480469 64.949219 102.234375 64.847656 C 101.988281 64.746094 101.773438 64.601562 101.585938 64.414062 C 101.398438 64.226562 101.253906 64.011719 101.152344 63.765625 C 101.050781 63.519531 101 63.265625 101 63 C 101 62.734375 101.050781 62.480469 101.152344 62.234375 C 101.253906 61.988281 101.398438 61.773438 101.585938 61.585938 C 101.773438 61.398438 101.988281 61.253906 102.234375 61.152344 C 102.480469 61.050781 102.734375 61 103 61 C 103.265625 61 103.519531 61.050781 103.765625 61.152344 C 104.011719 61.253906 104.226562 61.398438 104.414062 61.585938 C 104.601562 61.773438 104.746094 61.988281 104.847656 62.234375 C 104.949219 62.480469 105 62.734375 105 63 C 105 63.265625 104.949219 63.519531 104.847656 63.765625 C 104.746094 64.011719 104.601562 64.226562 104.414062 64.414062 C 104.226562 64.601562 104.011719 64.746094 103.765625 64.847656 C 103.519531 64.949219 103.265625 65 103 65 Z M 103 65 " fill-opacity="1" fill-rule="nonzero"/><path fill="#3d1700" d="M 103 81 C 102.605469 81 102.214844 81.039062 101.828125 81.117188 C 101.441406 81.191406 101.066406 81.304688 100.703125 81.457031 C 100.339844 81.609375 99.996094 81.792969 99.667969 82.011719 C 99.339844 82.230469 99.035156 82.480469 98.757812 82.757812 C 98.480469 83.035156 98.230469 83.339844 98.011719 83.667969 C 97.792969 83.996094 97.609375 84.339844 97.457031 84.703125 C 97.304688 85.066406 97.191406 85.441406 97.117188 85.828125 C 97.039062 86.214844 97 86.605469 97 87 C 97 87.394531 97.039062 87.785156 97.117188 88.171875 C 97.191406 88.558594 97.304688 88.933594 97.457031 89.296875 C 97.609375 89.660156 97.792969 90.003906 98.011719 90.332031 C 98.230469 90.660156 98.480469 90.964844 98.757812 91.242188 C 99.035156 91.519531 99.339844 91.769531 99.667969 91.988281 C 99.996094 92.207031 100.339844 92.390625 100.703125 92.542969 C 101.066406 92.695312 101.441406 92.808594 101.828125 92.882812 C 102.214844 92.960938 102.605469 93 103 93 C 103.394531 93 103.785156 92.960938 104.171875 92.882812 C 104.558594 92.808594 104.933594 92.695312 105.296875 92.542969 C 105.660156 92.390625 106.003906 92.207031 106.332031 91.988281 C 106.660156 91.769531 106.964844 91.519531 107.242188 91.242188 C 107.519531 90.964844 107.769531 90.660156 107.988281 90.332031 C 108.207031 90.003906 108.390625 89.660156 108.542969 89.296875 C 108.695312 88.933594 108.808594 88.558594 108.882812 88.171875 C 108.960938 87.785156 109 87.394531 109 87 C 109 86.605469 108.960938 86.214844 108.882812 85.828125 C 108.808594 85.441406 108.695312 85.066406 108.542969 84.703125 C 108.390625 84.339844 108.207031 83.996094 107.988281 83.667969 C 107.769531 83.339844 107.519531 83.035156 107.242188 82.757812 C 106.964844 82.480469 106.660156 82.230469 106.332031 82.011719 C 106.003906 81.792969 105.660156 81.609375 105.296875 81.457031 C 104.933594 81.304688 104.558594 81.191406 104.171875 81.117188 C 103.785156 81.039062 103.394531 81 103 81 Z M 103 89 C 102.734375 89 102.480469 88.949219 102.234375 88.847656 C 101.988281 88.746094 101.773438 88.601562 101.585938 88.414062 C 101.398438 88.226562 101.253906 88.011719 101.152344 87.765625 C 101.050781 87.519531 101 87.265625 101 87 C 101 86.734375 101.050781 86.480469 101.152344 86.234375 C 101.253906 85.988281 101.398438 85.773438 101.585938 85.585938 C 101.773438 85.398438 101.988281 85.253906 102.234375 85.152344 C 102.480469 85.050781 102.734375 85 103 85 C 103.265625 85 103.519531 85.050781 103.765625 85.152344 C 104.011719 85.253906 104.226562 85.398438 104.414062 85.585938 C 104.601562 85.773438 104.746094 85.988281 104.847656 86.234375 C 104.949219 86.480469 105 86.734375 105 87 C 105 87.265625 104.949219 87.519531 104.847656 87.765625 C 104.746094 88.011719 104.601562 88.226562 104.414062 88.414062 C 104.226562 88.601562 104.011719 88.746094 103.765625 88.847656 C 103.519531 88.949219 103.265625 89 103 89 Z M 103 89 " fill-opacity="1" fill-rule="nonzero"/><path fill="#3d1700" d="M 103 105 C 102.605469 105 102.214844 105.039062 101.828125 105.117188 C 101.441406 105.191406 101.066406 105.304688 100.703125 105.457031 C 100.339844 105.609375 99.996094 105.792969 99.667969 106.011719 C 99.339844 106.230469 99.035156 106.480469 98.757812 106.757812 C 98.480469 107.035156 98.230469 107.339844 98.011719 107.667969 C 97.792969 107.996094 97.609375 108.339844 97.457031 108.703125 C 97.304688 109.066406 97.191406 109.441406 97.117188 109.828125 C 97.039062 110.214844 97 110.605469 97 111 C 97 111.394531 97.039062 111.785156 97.117188 112.171875 C 97.191406 112.558594 97.304688 112.933594 97.457031 113.296875 C 97.609375 113.660156 97.792969 114.003906 98.011719 114.332031 C 98.230469 114.660156 98.480469 114.964844 98.757812 115.242188 C 99.035156 115.519531 99.339844 115.769531 99.667969 115.988281 C 99.996094 116.207031 100.339844 116.390625 100.703125 116.542969 C 101.066406 116.695312 101.441406 116.808594 101.828125 116.882812 C 102.214844 116.960938 102.605469 117 103 117 C 103.394531 117 103.785156 116.960938 104.171875 116.882812 C 104.558594 116.808594 104.933594 116.695312 105.296875 116.542969 C 105.660156 116.390625 106.003906 116.207031 106.332031 115.988281 C 106.660156 115.769531 106.964844 115.519531 107.242188 115.242188 C 107.519531 114.964844 107.769531 114.660156 107.988281 114.332031 C 108.207031 114.003906 108.390625 113.660156 108.542969 113.296875 C 108.695312 112.933594 108.808594 112.558594 108.882812 112.171875 C 108.960938 111.785156 109 111.394531 109 111 C 109 110.605469 108.960938 110.214844 108.882812 109.828125 C 108.808594 109.441406 108.695312 109.066406 108.542969 108.703125 C 108.390625 108.339844 108.207031 107.996094 107.988281 107.667969 C 107.769531 107.339844 107.519531 107.035156 107.242188 106.757812 C 106.964844 106.480469 106.660156 106.230469 106.332031 106.011719 C 106.003906 105.792969 105.660156 105.609375 105.296875 105.457031 C 104.933594 105.304688 104.558594 105.191406 104.171875 105.117188 C 103.785156 105.039062 103.394531 105 103 105 Z M 103 113 C 102.734375 113 102.480469 112.949219 102.234375 112.847656 C 101.988281 112.746094 101.773438 112.601562 101.585938 112.414062 C 101.398438 112.226562 101.253906 112.011719 101.152344 111.765625 C 101.050781 111.519531 101 111.265625 101 111 C 101 110.734375 101.050781 110.480469 101.152344 110.234375 C 101.253906 109.988281 101.398438 109.773438 101.585938 109.585938 C 101.773438 109.398438 101.988281 109.253906 102.234375 109.152344 C 102.480469 109.050781 102.734375 109 103 109 C 103.265625 109 103.519531 109.050781 103.765625 109.152344 C 104.011719 109.253906 104.226562 109.398438 104.414062 109.585938 C 104.601562 109.773438 104.746094 109.988281 104.847656 110.234375 C 104.949219 110.480469 105 110.734375 105 111 C 105 111.265625 104.949219 111.519531 104.847656 111.765625 C 104.746094 112.011719 104.601562 112.226562 104.414062 112.414062 C 104.226562 112.601562 104.011719 112.746094 103.765625 112.847656 C 103.519531 112.949219 103.265625 113 103 113 Z M 103 113 " fill-opacity="1" fill-rule="nonzero"/><path fill="#3d1700" d="M 121 131 L 121 57 C 121 30.308594 114.441406 15 103 15 C 91.558594 15 85 30.308594 85 57 L 85 131 C 85 131.261719 85.027344 131.523438 85.078125 131.78125 C 85.128906 132.039062 85.203125 132.289062 85.304688 132.53125 C 85.40625 132.773438 85.527344 133.003906 85.675781 133.222656 C 85.820312 133.441406 85.984375 133.644531 86.171875 133.828125 C 86.355469 134.015625 86.558594 134.179688 86.777344 134.324219 C 86.996094 134.472656 87.226562 134.59375 87.46875 134.695312 C 87.710938 134.796875 87.960938 134.871094 88.21875 134.921875 C 88.476562 134.972656 88.738281 135 89 135 L 117 135 C 117.261719 135 117.523438 134.972656 117.78125 134.921875 C 118.039062 134.871094 118.289062 134.796875 118.53125 134.695312 C 118.773438 134.59375 119.003906 134.472656 119.222656 134.324219 C 119.441406 134.179688 119.644531 134.015625 119.828125 133.828125 C 120.015625 133.644531 120.179688 133.441406 120.324219 133.222656 C 120.472656 133.003906 120.59375 132.773438 120.695312 132.53125 C 120.796875 132.289062 120.871094 132.039062 120.921875 131.78125 C 120.972656 131.523438 121 131.261719 121 131 Z M 89 57 C 89 38.628906 92.679688 19 103 19 C 113.320312 19 117 38.628906 117 57 L 117 131 L 89 131 Z M 89 57 " fill-opacity="1" fill-rule="nonzero"/></svg>