<svg xmlns="http://www.w3.org/2000/svg" xmlns:xlink="http://www.w3.org/1999/xlink" width="200" zoomAndPan="magnify" viewBox="0 0 150 149.999998" height="200" preserveAspectRatio="xMidYMid meet" version="1.0"><path fill="#3d1700" d="M 131.308594 80 L 123.609375 75.191406 C 120.601562 73.3125 117.046875 72.71875 113.59375 73.515625 C 110.140625 74.316406 107.203125 76.410156 105.328125 79.414062 L 97.496094 91.949219 C 96.117188 94.160156 93.960938 95.699219 91.421875 96.285156 C 88.882812 96.871094 86.269531 96.433594 84.058594 95.054688 C 79.496094 92.207031 78.105469 86.175781 80.953125 81.617188 L 98.71875 53.171875 C 102.59375 46.96875 100.699219 38.765625 94.496094 34.890625 L 86.949219 30.175781 L 88.164062 28.226562 C 88.679688 27.402344 88.429688 26.320312 87.605469 25.804688 C 86.78125 25.292969 85.699219 25.542969 85.183594 26.363281 L 80.320312 34.148438 C 79.808594 34.972656 80.058594 36.058594 80.882812 36.570312 C 81.171875 36.753906 81.492188 36.839844 81.8125 36.839844 C 82.398438 36.839844 82.96875 36.546875 83.304688 36.011719 L 85.085938 33.160156 L 92.632812 37.875 C 97.195312 40.722656 98.585938 46.75 95.738281 51.3125 L 77.972656 79.753906 C 74.097656 85.957031 75.992188 94.160156 82.195312 98.035156 C 84.332031 99.371094 86.742188 100.054688 89.199219 100.054688 C 90.203125 100.054688 91.210938 99.941406 92.210938 99.710938 C 95.664062 98.914062 98.601562 96.816406 100.476562 93.8125 L 108.308594 81.277344 C 109.6875 79.070312 111.84375 77.527344 114.382812 76.941406 C 116.921875 76.355469 119.535156 76.792969 121.746094 78.171875 L 129.449219 82.984375 C 130.269531 83.496094 131.355469 83.246094 131.871094 82.425781 C 132.382812 81.601562 132.132812 80.515625 131.308594 80 Z M 131.308594 80 " fill-opacity="1" fill-rule="nonzero"/><path fill="#3d1700" d="M 88.089844 39.199219 C 87.292969 38.644531 86.199219 38.839844 85.644531 39.636719 L 21.710938 131.425781 C 21.695312 131.445312 21.683594 131.460938 21.675781 131.472656 C 21.640625 131.460938 21.597656 131.433594 21.574219 131.40625 C 21.578125 131.394531 21.585938 131.378906 21.597656 131.355469 L 82.636719 21.78125 C 83.492188 20.246094 84.902344 19.160156 86.601562 18.722656 C 88.304688 18.285156 90.0625 18.554688 91.550781 19.484375 C 92.996094 20.386719 94 21.796875 94.378906 23.453125 C 94.757812 25.105469 94.472656 26.800781 93.578125 28.234375 C 93.523438 28.324219 93.460938 28.414062 93.398438 28.503906 C 92.84375 29.300781 93.042969 30.394531 93.835938 30.949219 C 94.632812 31.503906 95.730469 31.308594 96.285156 30.511719 C 96.378906 30.375 96.46875 30.238281 96.558594 30.097656 C 97.949219 27.871094 98.394531 25.230469 97.804688 22.667969 C 97.214844 20.09375 95.65625 17.902344 93.414062 16.503906 C 91.101562 15.058594 88.371094 14.636719 85.726562 15.316406 C 83.082031 15.996094 80.894531 17.6875 79.566406 20.070312 L 77.296875 24.148438 L 68.855469 18.875 C 68.03125 18.363281 66.949219 18.613281 66.433594 19.4375 C 65.917969 20.257812 66.171875 21.34375 66.992188 21.859375 L 75.582031 27.222656 L 18.527344 129.644531 C 17.566406 131.371094 18.085938 133.382812 19.757812 134.425781 C 20.375 134.8125 21.046875 135 21.699219 135 C 22.8125 135 23.882812 134.457031 24.59375 133.4375 L 88.527344 41.648438 C 89.082031 40.851562 88.886719 39.753906 88.089844 39.199219 Z M 88.089844 39.199219 " fill-opacity="1" fill-rule="nonzero"/></svg>