<svg xmlns="http://www.w3.org/2000/svg" xmlns:xlink="http://www.w3.org/1999/xlink" width="200" zoomAndPan="magnify" viewBox="0 0 150 149.999998" height="200" preserveAspectRatio="xMidYMid meet" version="1.0"><path fill="#3d1700" d="M 75 101.925781 C 68.75 101.925781 63.664062 107.011719 63.664062 113.261719 C 63.664062 119.511719 68.75 124.59375 75 124.59375 C 81.25 124.59375 86.335938 119.511719 86.335938 113.261719 C 86.335938 107.011719 81.25 101.925781 75 101.925781 Z M 75 121.078125 C 70.6875 121.078125 67.179688 117.574219 67.179688 113.261719 C 67.179688 108.949219 70.6875 105.441406 75 105.441406 C 79.3125 105.441406 82.820312 108.949219 82.820312 113.261719 C 82.820312 117.574219 79.3125 121.078125 75 121.078125 Z M 75 121.078125 " fill-opacity="1" fill-rule="nonzero"/><path fill="#3d1700" d="M 134.070312 28.425781 L 132.925781 25.449219 C 131.925781 22.851562 129.203125 21.515625 126.664062 22.097656 L 124.128906 17.105469 C 123.164062 15.214844 120.839844 14.457031 118.945312 15.417969 L 115.875 16.980469 C 113.976562 17.945312 113.21875 20.261719 114.183594 22.160156 L 116.644531 27 C 115.703125 27.546875 114.722656 28.140625 113.71875 28.78125 L 110.710938 24.332031 C 109.515625 22.570312 107.121094 22.105469 105.355469 23.300781 L 102.503906 25.230469 C 100.742188 26.425781 100.277344 28.820312 101.472656 30.582031 L 104.683594 35.328125 C 103.722656 36.121094 102.753906 36.953125 101.785156 37.824219 L 97.28125 33.320312 C 95.777344 31.816406 93.332031 31.816406 91.832031 33.320312 L 89.394531 35.753906 C 87.890625 37.257812 87.890625 39.703125 89.394531 41.203125 L 94.007812 45.816406 C 92.875 47.152344 91.761719 48.546875 90.675781 50.007812 C 88.789062 48.054688 86.367188 46.726562 83.695312 46.179688 C 82.019531 43.09375 78.75 40.992188 75 40.992188 C 71.253906 40.992188 67.988281 43.085938 66.3125 46.167969 C 63.636719 46.710938 61.207031 48.042969 59.316406 50 C 58.234375 48.542969 57.125 47.148438 55.992188 45.816406 L 60.605469 41.203125 C 62.109375 39.703125 62.109375 37.257812 60.605469 35.753906 L 58.167969 33.320312 C 56.667969 31.816406 54.222656 31.816406 52.71875 33.320312 L 48.210938 37.824219 C 47.246094 36.953125 46.277344 36.121094 45.316406 35.328125 L 48.527344 30.582031 C 49.722656 28.820312 49.257812 26.425781 47.496094 25.230469 L 44.640625 23.300781 C 42.878906 22.109375 40.484375 22.570312 39.289062 24.332031 L 36.28125 28.78125 C 35.277344 28.140625 34.296875 27.546875 33.355469 27 L 35.816406 22.160156 C 36.78125 20.261719 36.023438 17.945312 34.125 16.980469 L 31.054688 15.417969 C 29.160156 14.453125 26.835938 15.214844 25.871094 17.105469 L 23.335938 22.097656 C 20.800781 21.515625 18.074219 22.851562 17.074219 25.449219 L 15.929688 28.425781 C 14.871094 31.164062 16.222656 34.296875 18.941406 35.402344 C 31.894531 40.683594 42.972656 49.855469 50.25 61.296875 C 47.636719 65.617188 47.535156 71.140625 50.121094 75.578125 L 53.566406 81.484375 C 53.894531 82.042969 54.480469 82.355469 55.085938 82.355469 C 55.386719 82.355469 55.691406 82.28125 55.96875 82.117188 C 56.808594 81.628906 57.09375 80.550781 56.601562 79.714844 L 53.15625 73.804688 C 51.082031 70.246094 51.320312 65.746094 53.714844 62.425781 C 55.464844 60.238281 61.230469 53.136719 61.265625 53.097656 C 62.3125 51.808594 63.644531 50.816406 65.144531 50.1875 C 65.101562 50.832031 65.128906 50.050781 65.121094 68.527344 C 62.308594 70.855469 60.417969 74.074219 59.761719 77.6875 L 53.765625 110.773438 C 51.5 123.269531 61.0625 135 73.996094 135 L 76.003906 135 C 88.792969 135 98.527344 123.421875 96.234375 110.773438 L 90.238281 77.6875 C 89.582031 74.074219 87.691406 70.855469 84.878906 68.527344 C 84.871094 49.820312 84.898438 50.835938 84.855469 50.199219 C 86.351562 50.828125 87.679688 51.816406 88.726562 53.101562 L 95.929688 61.960938 C 98.628906 65.28125 99.042969 70.035156 96.851562 73.800781 L 93.484375 79.589844 C 92.996094 80.425781 93.28125 81.503906 94.117188 81.992188 C 94.398438 82.152344 94.703125 82.230469 95 82.230469 C 95.605469 82.230469 96.195312 81.917969 96.523438 81.355469 L 99.890625 75.570312 C 102.472656 71.132812 102.367188 65.613281 99.75 61.296875 C 107.027344 49.851562 118.105469 40.683594 131.058594 35.402344 C 133.777344 34.296875 135.128906 31.164062 134.070312 28.425781 Z M 55.203125 35.804688 C 55.335938 35.671875 55.550781 35.671875 55.683594 35.804688 L 58.121094 38.242188 C 58.25 38.371094 58.25 38.585938 58.121094 38.71875 L 53.652344 43.183594 C 52.703125 42.160156 51.742188 41.175781 50.777344 40.230469 Z M 42.203125 26.304688 C 42.304688 26.148438 42.515625 26.109375 42.671875 26.210938 L 45.523438 28.144531 C 45.679688 28.246094 45.71875 28.457031 45.617188 28.613281 L 42.550781 33.140625 C 41.421875 32.28125 40.304688 31.476562 39.210938 30.722656 Z M 29.460938 18.550781 L 32.53125 20.113281 C 32.699219 20.195312 32.765625 20.398438 32.679688 20.566406 L 30.28125 25.285156 C 28.933594 24.570312 27.695312 23.957031 26.597656 23.441406 L 29.007812 18.699219 C 29.089844 18.535156 29.296875 18.46875 29.460938 18.550781 Z M 20.265625 32.148438 C 19.3125 31.757812 18.835938 30.652344 19.207031 29.6875 L 20.355469 26.710938 C 20.746094 25.695312 21.894531 25.207031 22.894531 25.632812 C 35.5 31.015625 48.183594 40.613281 56.996094 52.78125 L 52.503906 58.3125 C 44.835938 46.769531 33.476562 37.53125 20.265625 32.148438 Z M 75 44.507812 C 78.515625 44.507812 81.363281 47.367188 81.363281 50.871094 L 81.363281 73.289062 C 81.363281 76.800781 78.507812 79.652344 75 79.652344 C 71.492188 79.652344 68.636719 76.800781 68.636719 73.289062 L 68.636719 69.398438 C 68.636719 69.394531 68.636719 69.386719 68.636719 69.378906 L 68.636719 50.871094 C 68.636719 47.363281 71.492188 44.507812 75 44.507812 Z M 86.777344 78.3125 L 92.773438 111.398438 C 94.652344 121.757812 86.726562 131.484375 76.003906 131.484375 L 73.996094 131.484375 C 63.261719 131.484375 55.347656 121.746094 57.222656 111.398438 L 63.222656 78.3125 C 63.527344 76.628906 64.179688 75.054688 65.128906 73.675781 C 65.332031 78.945312 69.679688 83.167969 75 83.167969 C 80.320312 83.167969 84.667969 78.945312 84.871094 73.675781 C 85.820312 75.054688 86.472656 76.628906 86.777344 78.3125 Z M 117.320312 20.566406 C 117.234375 20.398438 117.300781 20.195312 117.46875 20.113281 L 120.539062 18.550781 C 120.703125 18.46875 120.910156 18.535156 120.992188 18.699219 L 123.402344 23.441406 C 122.304688 23.957031 121.066406 24.570312 119.71875 25.285156 Z M 104.382812 28.613281 C 104.28125 28.457031 104.320312 28.246094 104.476562 28.144531 L 107.328125 26.210938 C 107.484375 26.109375 107.695312 26.148438 107.796875 26.304688 L 110.789062 30.722656 C 109.695312 31.476562 108.578125 32.28125 107.449219 33.140625 Z M 91.878906 38.71875 C 91.75 38.585938 91.75 38.371094 91.878906 38.242188 L 94.316406 35.804688 C 94.449219 35.671875 94.664062 35.671875 94.796875 35.804688 L 99.222656 40.230469 C 98.257812 41.175781 97.296875 42.160156 96.347656 43.183594 Z M 129.730469 32.148438 C 116.523438 37.53125 105.164062 46.769531 97.496094 58.3125 L 93 52.785156 C 101.757812 40.695312 114.40625 31.050781 127.105469 25.632812 C 128.105469 25.207031 129.253906 25.695312 129.644531 26.710938 L 130.792969 29.6875 C 131.164062 30.652344 130.6875 31.757812 129.730469 32.148438 Z M 129.730469 32.148438 " fill-opacity="1" fill-rule="nonzero"/></svg>